<?xml version="1.0" encoding="UTF-8" standalone="no"?>
<svg
   xmlns:dc="http://purl.org/dc/elements/1.1/"
   xmlns:cc="http://creativecommons.org/ns#"
   xmlns:rdf="http://www.w3.org/1999/02/22-rdf-syntax-ns#"
   xmlns:svg="http://www.w3.org/2000/svg"
   xmlns="http://www.w3.org/2000/svg"
   version="1.1"
   id="svg2"
   viewBox="0 0 220.31393 65"
   height="65"
   width="220.31393">
  <defs
     id="defs4">
    <clipPath
       id="clipPath4446"
       clipPathUnits="userSpaceOnUse">
      <path
         id="path4448"
         d="m 255.28125,976.27623 c -1.35,0 -2.71797,0.11289 -4.10547,0.33789 l 0,40.44338 c 1.3875,0.225 2.77461,0.3379 4.16211,0.3379 1.3125,0 2.68242,-0.1129 4.10742,-0.3379 l 0,-40.44338 c -1.425,-0.225 -2.81406,-0.33789 -4.16406,-0.33789 z m 11.34961,0.33789 c -0.225,1.125 -0.33594,2.26719 -0.33594,3.42969 0,1.2375 0.11094,2.41992 0.33594,3.54492 l 10.07031,0 0,33.46877 c 0.75,0.1126 1.48086,0.1873 2.19336,0.2246 0.75,0.037 1.44258,0.057 2.08008,0.057 0.6375,0 1.29375,-0.038 1.96875,-0.1132 0.675,-0.038 1.35039,-0.093 2.02539,-0.168 l 0,-33.46877 10.06836,0 c 0.225,-1.125 0.33789,-2.30742 0.33789,-3.54492 0,-1.1625 -0.11289,-2.30469 -0.33789,-3.42969 l -28.40625,0 z"
         style="font-style:normal;font-variant:normal;font-weight:bold;font-stretch:normal;font-size:56.25px;line-height:100%;font-family:Aller;-inkscape-font-specification:'Aller Bold';text-align:start;letter-spacing:0px;word-spacing:0px;writing-mode:lr-tb;text-anchor:start;fill:#ffffff;fill-opacity:1;stroke:#ffffff;stroke-width:0.875;stroke-linecap:butt;stroke-linejoin:miter;stroke-miterlimit:4;stroke-dasharray:none;stroke-opacity:1" />
    </clipPath>
    <filter
       height="1.1074471"
       y="-0.053723596"
       width="1.0309026"
       x="-0.015451284"
       id="filter4417"
       style="color-interpolation-filters:sRGB">
      <feGaussianBlur
         id="feGaussianBlur4419"
         stdDeviation="0.9120508" />
    </filter>
  </defs>
  <metadata
     id="metadata7">
    <rdf:RDF>
      <cc:Work
         rdf:about="">
        <dc:format>image/svg+xml</dc:format>
        <dc:type
           rdf:resource="http://purl.org/dc/dcmitype/StillImage" />
        <dc:title></dc:title>
      </cc:Work>
    </rdf:RDF>
  </metadata>
  <g
     transform="translate(-79.68608,-37.500001)"
     style="display:none"
     id="layer3">
    <rect
       y="40.000008"
       x="72.500008"
       height="59.999989"
       width="224.99998"
       id="rect3356"
       style="display:inline;fill:#999999;stroke:#ffffff;stroke-width:0;stroke-miterlimit:4;stroke-dasharray:none" />
  </g>
  <g
     transform="translate(-79.68608,-37.500001)"
     style="display:inline"
     id="layer5">
    <g
       id="flowRoot4194"
       style="font-style:normal;font-weight:normal;font-size:40px;line-height:125%;font-family:sans-serif;letter-spacing:0px;word-spacing:0px;display:inline;fill:#99000f;fill-opacity:1;stroke:none;stroke-width:1px;stroke-linecap:butt;stroke-linejoin:miter;stroke-opacity:1"
       transform="matrix(5.9210526,0,0,9.9337748,-213.10937,243.85306)">
      <path
         id="path4207"
         style="font-style:normal;font-variant:normal;font-weight:normal;font-stretch:normal;font-family:'Aller Display';-inkscape-font-specification:'Aller Display';fill:#99000f;fill-opacity:1"
         d="m 74.83625,-17.481208 q 0,-1.36 0.36,-3.04 l 10.72,0 q 0.2,0.84 0.24,1.6 0.08,0.72 0.08,1.4 0,0.68 -0.08,1.44 -0.04,0.76 -0.24,1.6 l -10.72,0 q -0.36,-1.68 -0.36,-3 z" />
    </g>
  </g>
  <g
     transform="translate(-79.68608,-37.500001)"
     style="display:none"
     id="layer6">
    <text
       id="text4155"
       y="88.845497"
       x="80.157501"
       style="font-style:normal;font-variant:normal;font-weight:normal;font-stretch:normal;font-size:40px;line-height:125%;font-family:'Azoft Sans';-inkscape-font-specification:'Azoft Sans';letter-spacing:0.5px;word-spacing:0px;display:inline;fill:#2e3333;fill-opacity:1;stroke:none;stroke-width:1px;stroke-linecap:butt;stroke-linejoin:miter;stroke-opacity:1"
       xml:space="preserve"><tspan
         dx="0 -1.5"
         style="font-style:normal;font-variant:normal;font-weight:normal;font-stretch:normal;font-size:75.3125px;font-family:'Aller Display';-inkscape-font-specification:'Aller Display';letter-spacing:0.5px;fill:#2e3333;fill-opacity:1"
         y="88.845497"
         x="80.157501"
         id="tspan4157"><tspan
           id="tspan4192"
           style="letter-spacing:0.5px">leas</tspan><tspan
           dx="6 -1"
           id="tspan4163"
           style="font-size:75.3125px;letter-spacing:0.5px;fill:#ffffff;fill-opacity:1">it</tspan></tspan></text>
  </g>
  <g
     transform="translate(-79.68608,-37.500001)"
     style="display:inline"
     id="layer2">
    <path
       style="font-style:normal;font-variant:normal;font-weight:normal;font-stretch:normal;font-size:medium;line-height:125%;font-family:'Azoft Sans';-inkscape-font-specification:'Azoft Sans';letter-spacing:0.5px;word-spacing:0px;display:inline;opacity:0.8;fill:#ffffff;fill-opacity:1;stroke:#ffffff;stroke-width:2.25;stroke-linecap:butt;stroke-linejoin:miter;stroke-miterlimit:4;stroke-dasharray:none;stroke-opacity:1;filter:url(#filter4417)"
       d="m 133.7207,49.005859 c -3.21333,0 -6.02359,0.551667 -8.43359,1.65625 -2.41,1.054375 -4.41872,2.509479 -6.02539,4.367188 -1.60667,1.857708 -2.8119,4.042318 -3.61524,6.552734 -0.80333,2.510417 -1.20507,5.196719 -1.20507,8.058594 0,2.912083 0.37578,5.598386 1.1289,8.058594 0.80334,2.460208 2.00857,4.594844 3.61524,6.402343 1.65688,1.757292 3.76555,3.136459 6.32617,4.140626 2.61083,1.004166 5.72484,1.507812 9.33984,1.507812 4.66938,0 9.23849,-0.829453 13.70703,-2.486328 -0.0502,-1.958125 -0.352,-3.840938 -0.90429,-5.648438 -0.50209,-1.8075 -1.10373,-3.364505 -1.80664,-4.669922 -1.7573,0.702917 -3.54016,1.230573 -5.34766,1.582032 -1.8075,0.351458 -3.44044,0.527344 -4.89648,0.527344 -2.25938,-10e-7 -4.09222,-0.425756 -5.49805,-1.279297 -1.35563,-0.853542 -2.30904,-2.3106 -2.86133,-4.369141 l 22.89453,0 c 0.10042,-0.702917 0.20232,-1.582343 0.30274,-2.636719 0.15062,-1.104583 0.22461,-2.333828 0.22461,-3.689453 0,-2.610833 -0.40175,-5.021302 -1.20508,-7.230469 -0.75313,-2.259375 -1.85646,-4.166198 -3.3125,-5.722656 -1.45604,-1.606667 -3.23891,-2.861875 -5.34766,-3.765625 -2.05854,-0.90375 -4.41904,-1.355469 -7.08008,-1.355469 z m 37.78907,0 c -1.90792,0 -4.06657,0.199896 -6.47657,0.601563 -2.35979,0.401667 -4.74625,1.00526 -7.15625,1.808594 0,1.004166 0.026,1.907604 0.0762,2.710937 0.10043,0.753125 0.22634,1.50664 0.37696,2.259766 0.20083,0.702916 0.4507,1.404505 0.75195,2.107422 0.35146,0.702916 0.75321,1.482396 1.20508,2.335937 1.70708,-0.6025 3.36404,-1.030209 4.9707,-1.28125 1.60667,-0.30125 3.01375,-0.451172 4.21875,-0.451172 0.90376,0 1.78123,0.07399 2.63477,0.22461 0.85354,0.100416 1.63302,0.326275 2.33594,0.677734 0.70291,0.30125 1.27858,0.752969 1.73046,1.355469 0.45188,0.6025 0.70371,1.356015 0.75391,2.259765 l -4.59375,0 c -1.90792,0 -3.86667,0.201849 -5.875,0.603516 -2.00833,0.351458 -3.84117,1.003073 -5.49805,1.957031 -1.65687,0.953958 -3.01203,2.23513 -4.0664,3.841797 -1.05438,1.606667 -1.58203,3.639401 -1.58203,6.09961 0,2.510416 0.4277,4.645052 1.28125,6.402343 0.90374,1.707084 2.13299,3.088203 3.68945,4.142578 1.55646,1.054375 3.41526,1.805938 5.57422,2.257813 2.20916,0.502083 4.61963,0.753906 7.23047,0.753906 3.0125,0 5.87273,-0.275833 8.58398,-0.828125 2.71125,-0.552291 5.02177,-1.103958 6.92969,-1.65625 l 0,-22.068359 c 0,-2.811667 -0.40175,-5.220183 -1.20508,-7.228516 -0.80333,-2.058542 -1.95859,-3.741458 -3.46484,-5.046875 -1.45604,-1.305417 -3.23891,-2.258828 -5.34766,-2.861328 -2.10875,-0.652708 -4.46729,-0.978516 -7.07812,-0.978516 z m 40.44726,0 c -2.41,0 -4.61862,0.299844 -6.62695,0.902344 -1.95813,0.6025 -3.66506,1.481928 -5.1211,2.636719 -1.45604,1.104583 -2.58533,2.459739 -3.38867,4.066406 -0.80333,1.606667 -1.20508,3.389531 -1.20508,5.347656 0,3.112917 0.87943,5.57336 2.63672,7.38086 1.7573,1.8075 3.96592,3.086719 6.62696,3.839844 L 210,74.611328 c 0.85354,0.251041 1.60705,0.552838 2.25977,0.904297 0.6527,0.30125 0.97851,0.776979 0.97851,1.429687 0,0.502084 -0.17588,0.903829 -0.52734,1.205079 -0.30125,0.30125 -0.70299,0.553073 -1.20508,0.753906 -0.50208,0.150627 -1.07971,0.250574 -1.73242,0.300781 -0.65271,0.05021 -1.28031,0.07617 -1.88282,0.07617 -1.75729,0 -3.51419,-0.175885 -5.27148,-0.527344 -1.75729,-0.401666 -3.44021,-0.979297 -5.04687,-1.732422 -1.60667,3.514584 -2.53412,6.978412 -2.78516,10.392578 2.30958,0.853542 4.49224,1.457136 6.55078,1.808594 2.05855,0.351458 4.29313,0.527344 6.70313,0.527344 2.91208,0 5.47247,-0.351771 7.68164,-1.054688 2.25937,-0.702916 4.14218,-1.658281 5.64843,-2.863281 1.55646,-1.205 2.71173,-2.634141 3.46485,-4.291015 0.80333,-1.656876 1.20508,-3.43974 1.20508,-5.347657 0,-1.857708 -0.24988,-3.438724 -0.75196,-4.74414 -0.50208,-1.305417 -1.20563,-2.410703 -2.10937,-3.314453 -0.85354,-0.90375 -1.90885,-1.631302 -3.16407,-2.183594 -1.205,-0.6025 -2.56015,-1.106146 -4.0664,-1.507813 l -4.89453,-1.279297 c -0.70292,-0.200833 -1.33052,-0.452656 -1.88281,-0.753906 -0.55229,-0.30125 -0.82813,-0.727005 -0.82813,-1.279297 0,-1.305416 1.17928,-1.958984 3.53906,-1.958984 1.60667,0 3.36357,0.225859 5.27149,0.677734 1.90791,0.451875 3.5389,0.953568 4.89453,1.50586 0.70292,-1.405834 1.33052,-3.01086 1.88281,-4.81836 0.55229,-1.857708 0.88005,-3.590599 0.98047,-5.197265 -2.20917,-0.753125 -4.44375,-1.330755 -6.70313,-1.732422 -2.25937,-0.401667 -4.34404,-0.601563 -6.25195,-0.601563 z m -121.105468,0.22461 c -1.004166,0 -2.057526,0.04997 -3.162109,0.15039 -1.054375,0.100417 -2.133698,0.276302 -3.238281,0.527344 l -0.07617,38.9375 26.960938,0 c 0.25104,-1.004167 0.40292,-1.933568 0.45312,-2.787109 0.10042,-0.90375 0.15039,-1.757214 0.15039,-2.560547 0,-0.803333 -0.05,-1.630833 -0.15039,-2.484375 -0.0502,-0.853541 -0.20208,-1.782943 -0.45312,-2.78711 l -14.232422,0 0.07422,-28.318359 c -1.054374,-0.251042 -2.133698,-0.426927 -3.238281,-0.527344 -1.104583,-0.100416 -2.133932,-0.15039 -3.087891,-0.15039 z m 42.417968,9.339843 c 1.85771,10e-7 3.26284,0.601641 4.2168,1.806641 1.00416,1.154792 1.55778,2.611849 1.6582,4.369141 l -12.05078,0 c 0.20083,-2.10875 0.87842,-3.665755 2.0332,-4.669922 1.1548,-1.004167 2.53591,-1.50586 4.14258,-1.50586 z m 39.36914,13.029297 4.29297,0 0,8.283203 c -0.40167,0.100417 -1.02927,0.200365 -1.88281,0.300782 -0.85354,0.100416 -1.50515,0.152344 -1.95703,0.152344 -0.65271,0 -1.38222,-0.05193 -2.18555,-0.152344 -0.75313,-0.100417 -1.48068,-0.300313 -2.18359,-0.601563 -0.65271,-0.30125 -1.20437,-0.728958 -1.65625,-1.28125 -0.45188,-0.6025 -0.67774,-1.404036 -0.67774,-2.408203 0,-1.355625 0.60164,-2.410937 1.80664,-3.164062 1.205,-0.753125 2.68607,-1.128907 4.44336,-1.128907 z"
       id="path4246-7" />
    <text
       id="text4151"
       y="120.44131"
       x="65.34127"
       style="font-style:normal;font-variant:normal;font-weight:normal;font-stretch:normal;font-size:40px;line-height:125%;font-family:'Azoft Sans';-inkscape-font-specification:'Azoft Sans';letter-spacing:0px;word-spacing:0px;fill:#000000;fill-opacity:1;stroke:none;stroke-width:1px;stroke-linecap:butt;stroke-linejoin:miter;stroke-opacity:1"
       xml:space="preserve"><tspan
         y="120.44131"
         x="65.34127"
         id="tspan4153" /></text>
    <path
       style="font-style:normal;font-variant:normal;font-weight:normal;font-stretch:normal;font-size:medium;line-height:125%;font-family:'Azoft Sans';-inkscape-font-specification:'Azoft Sans';letter-spacing:0.5px;word-spacing:0px;fill:#2e3333;fill-opacity:1;stroke:none;stroke-width:1px;stroke-linecap:butt;stroke-linejoin:miter;stroke-opacity:1"
       d="m 133.7207,49.005859 c -3.21333,0 -6.02359,0.551667 -8.43359,1.65625 -2.41,1.054375 -4.41872,2.509479 -6.02539,4.367188 -1.60667,1.857708 -2.8119,4.042318 -3.61524,6.552734 -0.80333,2.510417 -1.20507,5.196719 -1.20507,8.058594 0,2.912083 0.37578,5.598386 1.1289,8.058594 0.80334,2.460208 2.00857,4.594844 3.61524,6.402343 1.65688,1.757292 3.76555,3.136459 6.32617,4.140626 2.61083,1.004166 5.72484,1.507812 9.33984,1.507812 4.66938,0 9.23849,-0.829453 13.70703,-2.486328 -0.0502,-1.958125 -0.352,-3.840938 -0.90429,-5.648438 -0.50209,-1.8075 -1.10373,-3.364505 -1.80664,-4.669922 -1.7573,0.702917 -3.54016,1.230573 -5.34766,1.582032 -1.8075,0.351458 -3.44044,0.527344 -4.89648,0.527344 -2.25938,-10e-7 -4.09222,-0.425756 -5.49805,-1.279297 -1.35563,-0.853542 -2.30904,-2.3106 -2.86133,-4.369141 l 22.89453,0 c 0.10042,-0.702917 0.20232,-1.582343 0.30274,-2.636719 0.15062,-1.104583 0.22461,-2.333828 0.22461,-3.689453 0,-2.610833 -0.40175,-5.021302 -1.20508,-7.230469 -0.75313,-2.259375 -1.85646,-4.166198 -3.3125,-5.722656 -1.45604,-1.606667 -3.23891,-2.861875 -5.34766,-3.765625 -2.05854,-0.90375 -4.41904,-1.355469 -7.08008,-1.355469 z m 37.78907,0 c -1.90792,0 -4.06657,0.199896 -6.47657,0.601563 -2.35979,0.401667 -4.74625,1.00526 -7.15625,1.808594 0,1.004166 0.026,1.907604 0.0762,2.710937 0.10043,0.753125 0.22634,1.50664 0.37696,2.259766 0.20083,0.702916 0.4507,1.404505 0.75195,2.107422 0.35146,0.702916 0.75321,1.482396 1.20508,2.335937 1.70708,-0.6025 3.36404,-1.030209 4.9707,-1.28125 1.60667,-0.30125 3.01375,-0.451172 4.21875,-0.451172 0.90376,0 1.78123,0.07399 2.63477,0.22461 0.85354,0.100416 1.63302,0.326275 2.33594,0.677734 0.70291,0.30125 1.27858,0.752969 1.73046,1.355469 0.45188,0.6025 0.70371,1.356015 0.75391,2.259765 l -4.59375,0 c -1.90792,0 -3.86667,0.201849 -5.875,0.603516 -2.00833,0.351458 -3.84117,1.003073 -5.49805,1.957031 -1.65687,0.953958 -3.01203,2.23513 -4.0664,3.841797 -1.05438,1.606667 -1.58203,3.639401 -1.58203,6.09961 0,2.510416 0.4277,4.645052 1.28125,6.402343 0.90374,1.707084 2.13299,3.088203 3.68945,4.142578 1.55646,1.054375 3.41526,1.805938 5.57422,2.257813 2.20916,0.502083 4.61963,0.753906 7.23047,0.753906 3.0125,0 5.87273,-0.275833 8.58398,-0.828125 2.71125,-0.552291 5.02177,-1.103958 6.92969,-1.65625 l 0,-22.068359 c 0,-2.811667 -0.40175,-5.220183 -1.20508,-7.228516 -0.80333,-2.058542 -1.95859,-3.741458 -3.46484,-5.046875 -1.45604,-1.305417 -3.23891,-2.258828 -5.34766,-2.861328 -2.10875,-0.652708 -4.46729,-0.978516 -7.07812,-0.978516 z m 40.44726,0 c -2.41,0 -4.61862,0.299844 -6.62695,0.902344 -1.95813,0.6025 -3.66506,1.481928 -5.1211,2.636719 -1.45604,1.104583 -2.58533,2.459739 -3.38867,4.066406 -0.80333,1.606667 -1.20508,3.389531 -1.20508,5.347656 0,3.112917 0.87943,5.57336 2.63672,7.38086 1.7573,1.8075 3.96592,3.086719 6.62696,3.839844 L 210,74.611328 c 0.85354,0.251041 1.60705,0.552838 2.25977,0.904297 0.6527,0.30125 0.97851,0.776979 0.97851,1.429687 0,0.502084 -0.17588,0.903829 -0.52734,1.205079 -0.30125,0.30125 -0.70299,0.553073 -1.20508,0.753906 -0.50208,0.150627 -1.07971,0.250574 -1.73242,0.300781 -0.65271,0.05021 -1.28031,0.07617 -1.88282,0.07617 -1.75729,0 -3.51419,-0.175885 -5.27148,-0.527344 -1.75729,-0.401666 -3.44021,-0.979297 -5.04687,-1.732422 -1.60667,3.514584 -2.53412,6.978412 -2.78516,10.392578 2.30958,0.853542 4.49224,1.457136 6.55078,1.808594 2.05855,0.351458 4.29313,0.527344 6.70313,0.527344 2.91208,0 5.47247,-0.351771 7.68164,-1.054688 2.25937,-0.702916 4.14218,-1.658281 5.64843,-2.863281 1.55646,-1.205 2.71173,-2.634141 3.46485,-4.291015 0.80333,-1.656876 1.20508,-3.43974 1.20508,-5.347657 0,-1.857708 -0.24988,-3.438724 -0.75196,-4.74414 -0.50208,-1.305417 -1.20563,-2.410703 -2.10937,-3.314453 -0.85354,-0.90375 -1.90885,-1.631302 -3.16407,-2.183594 -1.205,-0.6025 -2.56015,-1.106146 -4.0664,-1.507813 l -4.89453,-1.279297 c -0.70292,-0.200833 -1.33052,-0.452656 -1.88281,-0.753906 -0.55229,-0.30125 -0.82813,-0.727005 -0.82813,-1.279297 0,-1.305416 1.17928,-1.958984 3.53906,-1.958984 1.60667,0 3.36357,0.225859 5.27149,0.677734 1.90791,0.451875 3.5389,0.953568 4.89453,1.50586 0.70292,-1.405834 1.33052,-3.01086 1.88281,-4.81836 0.55229,-1.857708 0.88005,-3.590599 0.98047,-5.197265 -2.20917,-0.753125 -4.44375,-1.330755 -6.70313,-1.732422 -2.25937,-0.401667 -4.34404,-0.601563 -6.25195,-0.601563 z m -121.105468,0.22461 c -1.004166,0 -2.057526,0.04997 -3.162109,0.15039 -1.054375,0.100417 -2.133698,0.276302 -3.238281,0.527344 l -0.07617,38.9375 26.960938,0 c 0.25104,-1.004167 0.40292,-1.933568 0.45312,-2.787109 0.10042,-0.90375 0.15039,-1.757214 0.15039,-2.560547 0,-0.803333 -0.05,-1.630833 -0.15039,-2.484375 -0.0502,-0.853541 -0.20208,-1.782943 -0.45312,-2.78711 l -14.232422,0 0.07422,-28.318359 c -1.054374,-0.251042 -2.133698,-0.426927 -3.238281,-0.527344 -1.104583,-0.100416 -2.133932,-0.15039 -3.087891,-0.15039 z m 42.417968,9.339843 c 1.85771,10e-7 3.26284,0.601641 4.2168,1.806641 1.00416,1.154792 1.55778,2.611849 1.6582,4.369141 l -12.05078,0 c 0.20083,-2.10875 0.87842,-3.665755 2.0332,-4.669922 1.1548,-1.004167 2.53591,-1.50586 4.14258,-1.50586 z m 39.36914,13.029297 4.29297,0 0,8.283203 c -0.40167,0.100417 -1.02927,0.200365 -1.88281,0.300782 -0.85354,0.100416 -1.50515,0.152344 -1.95703,0.152344 -0.65271,0 -1.38222,-0.05193 -2.18555,-0.152344 -0.75313,-0.100417 -1.48068,-0.300313 -2.18359,-0.601563 -0.65271,-0.30125 -1.20437,-0.728958 -1.65625,-1.28125 -0.45188,-0.6025 -0.67774,-1.404036 -0.67774,-2.408203 0,-1.355625 0.60164,-2.410937 1.80664,-3.164062 1.205,-0.753125 2.68607,-1.128907 4.44336,-1.128907 z"
       id="path4246" />
    <path
       d="m 251.8743,88.770185 q -1.95813,0.30125 -3.53969,0.451875 -1.58156,0.150625 -2.86187,0.150625 -1.28032,0 -2.86188,-0.150625 -1.58156,-0.150625 -3.46437,-0.451875 l 0,-38.86125 q 1.65687,-0.376563 3.23843,-0.527188 1.65688,-0.150625 3.16313,-0.150625 1.43094,0 3.08781,0.150625 1.65688,0.150625 3.23844,0.527188 l 0,38.86125 z"
       style="font-style:normal;font-variant:normal;font-weight:normal;font-stretch:normal;font-size:75.3125px;line-height:125%;font-family:'Azoft Sans';-inkscape-font-specification:'Azoft Sans';letter-spacing:0.5px;word-spacing:0px;fill:#ffffff;fill-opacity:1;stroke:none;stroke-width:1px;stroke-linecap:butt;stroke-linejoin:miter;stroke-opacity:1"
       id="path4254" />
    <path
       d="m 268.48906,60.527997 -11.14625,0 q -0.37656,-1.50625 -0.52718,-2.786562 -0.0753,-1.355625 -0.0753,-2.560625 0,-1.205 0.0753,-2.485313 0.15062,-1.280312 0.52718,-2.786562 l 35.02032,0 q 0.37656,1.50625 0.45187,2.786562 0.15063,1.280313 0.15063,2.485313 0,1.205 -0.15063,2.560625 -0.0753,1.280312 -0.45187,2.786562 l -11.14625,0 0,28.242188 q -1.95813,0.30125 -3.53969,0.451875 -1.58156,0.150625 -2.86188,0.150625 -1.28031,0 -2.86187,-0.150625 -1.58156,-0.150625 -3.46438,-0.451875 l 0,-28.242188 z"
       style="font-style:normal;font-variant:normal;font-weight:normal;font-stretch:normal;font-size:75.3125px;line-height:125%;font-family:'Azoft Sans';-inkscape-font-specification:'Azoft Sans';letter-spacing:0.5px;word-spacing:0px;fill:#ffffff;fill-opacity:1;stroke:none;stroke-width:1px;stroke-linecap:butt;stroke-linejoin:miter;stroke-opacity:1"
       id="path4256" />
  </g>
</svg>
