<svg xmlns="http://www.w3.org/2000/svg" width="299.8699" height="111.0143"><g opacity=".15"><g style="line-height:125%" font-size="146.4798" font-family="Fira Sans" letter-spacing="-3.9257" word-spacing="0" font-weight="800"><path d="M120.9846 52.0978c-10.1145 0-17.6495 5.4306-17.6495 14.0517 0 6.924 3.53 11.4722 14.527 14.9342 6.5167 1.9686 8.146 3.3262 8.146 6.4488 0 3.0547-2.376 5.0912-6.7205 5.0912-4.548 0-8.2817-1.765-11.6758-4.684l-6.2452 6.924c3.8693 3.7337 9.775 6.8563 18.3962 6.8563 12.083 0 19.2786-6.2452 19.2786-15.1378 0-8.5532-4.684-12.5583-13.9838-15.4773-7.0597-2.308-8.8247-3.2584-8.8247-5.9737 0-2.5796 2.0365-4.005 5.702-4.005 3.7337 0 6.992 1.2897 10.2504 3.8692l5.6343-6.6525c-4.2088-4.005-9.5036-6.2452-16.835-6.2452zM162.1403 91.1982c-1.2898.7467-2.5117 1.0182-3.6657 1.0182-1.9686 0-3.1226-1.086-3.1226-4.4802V72.5984h6.992l1.2218-8.2817h-8.2138v-9.0963l-12.083 1.4256v7.6707h-4.684v8.2817h4.684V87.872c0 9.0283 4.005 13.848 12.5582 13.848 3.3263 0 7.3992-.9504 10.3182-2.987l-4.005-7.5348z" style="line-height:125%;-inkscape-font-specification:'Fira Sans, Ultra-Bold';text-align:start"/><path d="M199.0692 81.8304c0-11.9473-6.6525-18.7356-17.1742-18.7356-11.54 0-17.446 8.757-17.446 19.4823 0 11.2007 6.1096 19.143 18.8036 19.143 6.0416 0 10.929-2.2402 14.459-5.159l-4.8876-6.6526c-3.1226 2.1722-5.6342 3.1905-8.4174 3.1905-4.2087 0-6.992-1.3578-7.7386-7.1957h22.1976c.068-1.2218.2036-2.919.2036-4.073zm-11.8794-2.9868H176.668c.4752-5.9737 2.24-7.9423 5.4306-7.9423 3.8693 0 5.0233 3.1905 5.0912 7.535v.4073zM213.022 101.72c2.851 0 5.2947-.4752 6.9918-1.222l-2.2402-8.553c-.4073.1356-.9503.2714-1.5613.2714-1.2218 0-1.765-.6788-1.765-1.9686V48.8395l-12.083 1.222V90.655c0 7.1278 3.8693 11.065 10.6576 11.065zM231.4878 101.72c2.851 0 5.295-.4752 6.992-1.222l-2.2402-8.553c-.4073.1356-.9504.2714-1.5613.2714-1.222 0-1.765-.6788-1.765-1.9686V48.8395l-12.083 1.222V90.655c0 7.1278 3.8693 11.065 10.6575 11.065zM270.322 89.3653V76.196c0-8.6888-4.616-13.1012-15.613-13.1012-4.073 0-9.4357.9504-13.916 2.7832l2.6475 7.8065c3.5977-1.222 7.1955-1.9007 9.4356-1.9007 4.141 0 5.6344 1.086 5.6344 5.0233v1.222h-3.1226c-11.1327 0-17.1743 4.4123-17.1743 12.3546 0 6.6525 4.616 11.3364 11.8116 11.3364 4.2088 0 8.2817-1.3577 10.8613-5.295 1.9007 3.462 4.8196 4.752 9.3 5.0913l2.4437-7.8065c-1.6292-.611-2.308-1.6292-2.308-4.3445zm-16.6313 3.8694c-2.308 0-3.5977-1.5613-3.5977-4.005 0-3.1906 2.0364-4.752 6.381-4.752h2.0364v5.906c-1.086 1.697-2.7832 2.851-4.8197 2.851zM296.2043 63.2306c-4.073 0-7.6707 3.1226-9.232 7.9422l-1.0183-6.856h-10.5218v36.1813h12.083V83.256c1.0862-5.0234 2.7833-8.2818 7.1278-8.2818 1.154 0 2.1722.2037 3.2584.543l1.9685-11.6757c-1.2898-.4073-2.308-.611-3.6657-.611z" style="line-height:125%;-inkscape-font-specification:'Fira Sans, Ultra-Bold';text-align:start"/></g><g transform="matrix(.18464 0 0 .18464 -22.04 -16.938)"><rect width="420" height="600.0001" x="120" y="92.3622" fill="#fff" stroke="#fff" stroke-width="1.25" rx="30" ry="30"/><path fill="#c30000" d="M149.9995 92.3613c-16.62 0-30 13.38-30 30v18.504c23.4848-25.5493 57.4188-42.1706 92.922-48.504h-62.922zm131.5566 0c37.55 6.5173 61.0012 23.4832 89.336 44.7344l33.4376-27.3575h2.0254l106.3906 113.4825-36.4766 33.4375h-2.0253c-40.5295-31.4104-71.941-63.834-129.6954-63.834-83.0853 0-136.787 52.6876-136.787 143.879l-2.0255 2.0272c-31.6366-4.3636-63.268-18.423-85.7363-40.9023v51.4845c66.4534 54.0546 85.9162 32.5842 167.8086 55.2773 53.7016 15.1985 94.2306 80.0465 94.2306 115.5098h-2.0274c-29.3838-24.3177-72.952-20.265-133.746-41.543-36.2197-12.677-95.9025-47.2067-126.2657-108.6426v207.582l125.252 90.5352v2.0274c-49.6678 0-91.1112-11.4224-125.252-37.9473v30.25c0 16.62 13.38 30 30 30H337.935c53.7277-28.0627 92.7383-81.584 92.7383-161.1172 0-37.4896-14.1844-71.9398-34.4492-100.3104l2.0255-2.0254c62.089 47.4798 129.105 108.9507 141.75 190.338V122.361c0-16.62-13.38-30-30-30H281.5562z"/></g></g></svg>