<svg xmlns="http://www.w3.org/2000/svg" viewBox="0 0 170.936 299.951"><g transform="matrix(.39907 0 0 .39907 -45.997 -36.61)"><rect ry="30" rx="30" y="92.362" x="120" height="600" width="420" fill="#fff" stroke="#fff" stroke-width="1.25"/><path d="M150 92.36c-16.62 0-30 13.38-30 30v18.505c23.484-25.55 57.418-42.17 92.92-48.504H150zm131.556 0c37.55 6.52 61 23.484 89.336 44.736l33.438-27.358h2.025l106.39 113.483-36.476 33.438h-2.026c-40.53-31.41-71.94-63.834-129.696-63.834-83.085 0-136.787 52.688-136.787 143.88l-2.024 2.026c-31.637-4.363-63.268-18.423-85.736-40.902v51.484c66.453 54.055 85.916 32.585 167.808 55.278 53.702 15.198 94.23 80.046 94.23 115.51h-2.027c-29.383-24.318-72.95-20.265-133.745-41.543C210.045 465.88 150.363 431.35 120 369.914v207.582l125.25 90.535v2.03c-49.666 0-91.11-11.424-125.25-37.95v30.25c0 16.62 13.38 30 30 30h187.935c53.728-28.06 92.738-81.583 92.738-161.116 0-37.49-14.184-71.94-34.45-100.31l2.027-2.026c62.088 47.48 129.105 108.95 141.75 190.338V122.36c0-16.62-13.38-30-30-30H281.556z" fill="#c30000"/></g><g style="line-height:125%" font-size="146.48" font-family="Fira Sans" letter-spacing="-3.926" word-spacing="0" font-weight="800"><path d="M16.894 257.22c-8.71 0-15.2 4.677-15.2 12.1 0 5.963 3.04 9.88 12.51 12.86 5.612 1.696 7.015 2.865 7.015 5.554 0 2.63-2.047 4.384-5.788 4.384-3.916 0-7.13-1.52-10.054-4.033L0 294.047c3.332 3.215 8.418 5.904 15.84 5.904 10.406 0 16.603-5.377 16.603-13.035 0-7.365-4.034-10.814-12.042-13.327-6.078-1.988-7.598-2.806-7.598-5.144 0-2.222 1.753-3.45 4.91-3.45 3.215 0 6.02 1.11 8.827 3.333l4.85-5.73c-3.624-3.448-8.183-5.377-14.496-5.377zM52.334 290.89c-1.11.643-2.163.877-3.157.877-1.695 0-2.69-.935-2.69-3.858v-13.036h6.022l1.05-7.132H46.49v-7.833l-10.405 1.227v6.605H32.05v7.132h4.033v13.152c0 7.775 3.45 11.925 10.814 11.925 2.865 0 6.372-.817 8.886-2.57l-3.45-6.49z" style="line-height:125%;-inkscape-font-specification:'Fira Sans, Ultra-Bold';text-align:start"/><path d="M84.134 282.824c0-10.29-5.73-16.134-14.79-16.134-9.936 0-15.022 7.54-15.022 16.777 0 9.645 5.26 16.484 16.192 16.484 5.203 0 9.41-1.928 12.45-4.442l-4.208-5.728c-2.69 1.87-4.852 2.747-7.248 2.747-3.624 0-6.02-1.17-6.664-6.196H83.96c.057-1.05.174-2.513.174-3.506zm-10.23-2.572h-9.06c.41-5.144 1.93-6.84 4.676-6.84 3.332 0 4.326 2.748 4.384 6.49v.35zM96.15 299.95c2.454 0 4.56-.408 6.02-1.05l-1.93-7.367c-.35.117-.818.234-1.344.234-1.052 0-1.52-.584-1.52-1.695v-35.658l-10.404 1.053v34.956c0 6.138 3.33 9.528 9.177 9.528zM112.05 299.95c2.456 0 4.56-.408 6.02-1.05l-1.928-7.367c-.35.117-.818.234-1.344.234-1.052 0-1.52-.584-1.52-1.695v-35.658l-10.405 1.053v34.956c0 6.138 3.332 9.528 9.177 9.528zM145.49 289.312v-11.34c0-7.482-3.974-11.282-13.443-11.282-3.508 0-8.126.818-11.984 2.397l2.28 6.722c3.098-1.053 6.196-1.638 8.125-1.638 3.566 0 4.852.936 4.852 4.326v1.052h-2.69c-9.585 0-14.788 3.8-14.788 10.64 0 5.728 3.975 9.76 10.17 9.76 3.626 0 7.133-1.168 9.354-4.56 1.637 2.983 4.15 4.093 8.01 4.386l2.103-6.723c-1.404-.526-1.99-1.403-1.99-3.74zm-14.32 3.332c-1.988 0-3.098-1.344-3.098-3.45 0-2.746 1.753-4.09 5.495-4.09h1.753v5.085c-.935 1.46-2.396 2.454-4.15 2.454zM167.78 266.807c-3.508 0-6.606 2.69-7.95 6.84l-.877-5.905h-9.06V298.9h10.404v-14.85c.935-4.325 2.397-7.13 6.138-7.13.994 0 1.87.175 2.806.467l1.696-10.054c-1.11-.35-1.988-.526-3.157-.526z" style="line-height:125%;-inkscape-font-specification:'Fira Sans, Ultra-Bold';text-align:start"/></g></svg>