<?xml version="1.0" encoding="UTF-8" standalone="no"?>
<!-- Created with Inkscape (http://www.inkscape.org/) -->

<svg
   xmlns:dc="http://purl.org/dc/elements/1.1/"
   xmlns:cc="http://creativecommons.org/ns#"
   xmlns:rdf="http://www.w3.org/1999/02/22-rdf-syntax-ns#"
   xmlns:svg="http://www.w3.org/2000/svg"
   xmlns="http://www.w3.org/2000/svg"
   xmlns:sodipodi="http://sodipodi.sourceforge.net/DTD/sodipodi-0.dtd"
   xmlns:inkscape="http://www.inkscape.org/namespaces/inkscape"
   width="182.61804mm"
   height="67.549034mm"
   viewBox="0 0 647.0718 239.34697"
   id="svg4830"
   version="1.1"
   inkscape:version="0.91 r13725"
   sodipodi:docname="stellar-horizontal.svg"
   inkscape:export-filename="/home/blade/Dropbox/Logos/stellar-horizontal.svg.png"
   inkscape:export-xdpi="139.09"
   inkscape:export-ydpi="139.09">
  <defs
     id="defs4832" />
  <sodipodi:namedview
     id="base"
     pagecolor="#ffffff"
     bordercolor="#666666"
     borderopacity="1.0"
     inkscape:pageopacity="0.0"
     inkscape:pageshadow="2"
     inkscape:zoom="1.6005215"
     inkscape:cx="175.2627"
     inkscape:cy="72.182357"
     inkscape:document-units="pt"
     inkscape:current-layer="layer1"
     showgrid="false"
     inkscape:window-width="2560"
     inkscape:window-height="1342"
     inkscape:window-x="0"
     inkscape:window-y="27"
     inkscape:window-maximized="1"
     showguides="false"
     inkscape:guide-bbox="true"
     fit-margin-top="0"
     fit-margin-left="0"
     fit-margin-right="0"
     fit-margin-bottom="0">
    <inkscape:grid
       type="xygrid"
       id="grid4165"
       units="pt"
       spacingx="15"
       spacingy="15"
       empspacing="4"
       originx="-133.16328"
       originy="-337.47133" />
    <sodipodi:guide
       position="-13.163277,22.528668"
       orientation="0,1"
       id="guide4175" />
    <sodipodi:guide
       position="166.83673,622.52867"
       orientation="0,1"
       id="guide4177" />
    <sodipodi:guide
       position="-13.163277,142.52867"
       orientation="1,0"
       id="guide4197" />
    <sodipodi:guide
       position="406.83673,82.528668"
       orientation="1,0"
       id="guide4199" />
  </sodipodi:namedview>
  <metadata
     id="metadata4835">
    <rdf:RDF>
      <cc:Work
         rdf:about="">
        <dc:format>image/svg+xml</dc:format>
        <dc:type
           rdf:resource="http://purl.org/dc/dcmitype/StillImage" />
        <dc:title />
      </cc:Work>
    </rdf:RDF>
  </metadata>
  <g
     inkscape:groupmode="layer"
     id="layer3"
     inkscape:label="background"
     transform="translate(-133.16328,-475.5439)" />
  <g
     inkscape:label="monogram"
     inkscape:groupmode="layer"
     id="layer1"
     transform="translate(-133.16328,-475.5439)"
     style="display:inline">
    <path
       style="fill:#c10000;fill-opacity:1;fill-rule:nonzero;stroke:#ffffff;stroke-width:0;stroke-miterlimit:4;stroke-dasharray:none;stroke-opacity:1"
       d="m 139.14696,475.5439 c -3.31497,0 -5.98368,3.70683 -5.98368,8.31092 l 0,11.38067 c 9.3453,-10.36989 22.9781,-17.1202 37.26083,-19.69159 l -31.27715,0 z m 58.8675,0 c 14.89567,2.61276 24.22405,9.35983 35.48677,17.80689 l 13.32615,-10.90384 0.80717,0 42.40228,45.22894 -14.53768,13.32614 -0.80795,0 c -16.15308,-12.51866 -28.67131,-25.44075 -51.68944,-25.44075 -33.11384,0 -54.51689,20.99909 -54.51689,57.34355 l -0.80795,0.80718 c -12.7705,-1.76145 -25.53958,-7.48563 -34.51364,-16.64678 l 0,20.58134 c 26.75903,21.89384 34.44624,13.23125 67.22362,22.31412 21.40285,6.05742 37.55612,31.90294 37.55612,46.0369 l -0.80795,0 c -11.71099,-9.69186 -29.07495,-8.0768 -53.30457,-16.55717 -14.57365,-5.10078 -38.67797,-19.07903 -50.66722,-44.00649 l 0,83.19099 50.26287,36.33133 0,0.80718 c -19.96248,0 -36.59059,-4.6311 -50.26287,-15.39471 l 0,16.21201 c 0,4.6041 2.66871,8.31014 5.98368,8.31014 l 80.75466,0 c 21.65164,-11.11789 37.42524,-32.52546 37.42524,-64.45149 0,-14.9416 -5.65398,-28.67204 -13.73051,-39.9792 l 0.80795,-0.80718 c 24.44058,18.68984 50.80003,42.81785 56.30185,74.66192 l 0,-200.4601 c 0,-4.60409 -2.66871,-8.31092 -5.98366,-8.31092 l -96.70803,0 z"
       id="rect4201"
       inkscape:connector-curvature="0" />
    <text
       xml:space="preserve"
       style="font-style:normal;font-weight:normal;font-size:180px;line-height:125%;font-family:sans-serif;letter-spacing:0px;word-spacing:0px;fill:#000000;fill-opacity:1;stroke:none;stroke-width:1px;stroke-linecap:butt;stroke-linejoin:miter;stroke-opacity:1"
       x="150"
       y="197.3622"
       id="text4189"
       sodipodi:linespacing="125%"><tspan
         sodipodi:role="line"
         id="tspan4191"
         x="150"
         y="197.3622" /></text>
  </g>
  <g
     inkscape:groupmode="layer"
     id="layer2"
     inkscape:label="logotype"
     style="display:inline"
     transform="translate(-133.16328,-475.5439)">
    <g
       transform="translate(236.63491,-131.73692)"
       style="font-style:normal;font-weight:normal;font-size:219.71966553px;line-height:125%;font-family:sans-serif;letter-spacing:0px;word-spacing:0px;fill:#000000;fill-opacity:1;stroke:none;stroke-width:1px;stroke-linecap:butt;stroke-linejoin:miter;stroke-opacity:1"
       id="text4142">
      <path
         d="m 157.59389,719.49534 c -21.82549,0 -38.08475,11.71838 -38.08475,30.32132 0,14.94093 7.61695,24.75508 31.34668,32.22555 14.06206,4.24791 17.57757,7.17751 17.57757,13.91558 0,6.59159 -5.12679,10.98598 -14.5015,10.98598 -9.81414,0 -17.87053,-3.80847 -25.19452,-10.1071 l -13.47614,14.94093 c 8.34935,8.05639 21.09309,14.79446 39.69602,14.79446 26.0734,0 41.60026,-13.47614 41.60026,-32.66499 0,-18.45645 -10.10711,-27.09876 -30.17484,-33.39739 -15.23389,-4.98031 -19.04237,-7.03103 -19.04237,-12.89022 0,-5.56623 4.3944,-8.64231 12.3043,-8.64231 8.05639,0 15.08742,2.78312 22.11845,8.34935 l 12.15782,-14.35502 c -9.08174,-8.64231 -20.50717,-13.47614 -36.32698,-13.47614 z"
         style="font-style:normal;font-variant:normal;font-weight:800;font-stretch:normal;font-size:146.4797821px;line-height:125%;font-family:'Fira Sans';-inkscape-font-specification:'Fira Sans, Ultra-Bold';text-align:start;letter-spacing:-3.92565942px;writing-mode:lr-tb;text-anchor:start"
         id="path4787"
         inkscape:connector-curvature="0" />
      <path
         d="m 246.40138,803.86769 c -2.78312,1.61128 -5.41976,2.1972 -7.90991,2.1972 -4.24792,0 -6.73807,-2.34368 -6.73807,-9.66766 l 0,-32.665 15.08741,0 2.63664,-17.87053 -17.72405,0 0,-19.62829 -26.0734,3.07608 0,16.55221 -10.10711,0 0,17.87053 10.10711,0 0,32.95796 c 0,19.48181 8.6423,29.88187 27.09876,29.88187 7.17751,0 15.96629,-2.05072 22.26492,-6.44511 l -8.6423,-16.25926 z"
         style="font-style:normal;font-variant:normal;font-weight:800;font-stretch:normal;font-size:146.4797821px;line-height:125%;font-family:'Fira Sans';-inkscape-font-specification:'Fira Sans, Ultra-Bold';text-align:start;letter-spacing:-3.92565942px;writing-mode:lr-tb;text-anchor:start"
         id="path4789"
         inkscape:connector-curvature="0" />
      <path
         d="m 326.0882,783.65348 c 0,-25.78044 -14.35502,-40.42842 -37.05938,-40.42842 -24.90156,0 -37.64531,18.8959 -37.64531,42.0397 0,24.16917 13.18318,41.3073 40.5749,41.3073 13.0367,0 23.58325,-4.83383 31.2002,-11.13246 l -10.54655,-14.35502 c -6.73807,4.68735 -12.15782,6.88455 -18.16349,6.88455 -9.08175,0 -15.08742,-2.9296 -16.6987,-15.52686 l 47.89889,0 c 0.14648,-2.63663 0.43944,-6.29863 0.43944,-8.78879 z m -25.63396,-6.44511 -22.70437,0 c 1.02536,-12.89022 4.83384,-17.13813 11.71839,-17.13813 8.34934,0 10.8395,6.88455 10.98598,16.25926 l 0,0.87887 z"
         style="font-style:normal;font-variant:normal;font-weight:800;font-stretch:normal;font-size:146.4797821px;line-height:125%;font-family:'Fira Sans';-inkscape-font-specification:'Fira Sans, Ultra-Bold';text-align:start;letter-spacing:-3.92565942px;writing-mode:lr-tb;text-anchor:start"
         id="path4791"
         inkscape:connector-curvature="0" />
      <path
         d="m 356.19576,826.57206 c 6.15215,0 11.42542,-1.02536 15.08741,-2.63664 l -4.83383,-18.45645 c -0.87888,0.29296 -2.05072,0.58592 -3.36903,0.58592 -2.63664,0 -3.80848,-1.4648 -3.80848,-4.24791 l 0,-89.35267 -26.0734,2.63664 0,87.59491 c 0,15.38037 8.34935,23.8762 22.99733,23.8762 z"
         style="font-style:normal;font-variant:normal;font-weight:800;font-stretch:normal;font-size:146.4797821px;line-height:125%;font-family:'Fira Sans';-inkscape-font-specification:'Fira Sans, Ultra-Bold';text-align:start;letter-spacing:-3.92565942px;writing-mode:lr-tb;text-anchor:start"
         id="path4793"
         inkscape:connector-curvature="0" />
      <path
         d="m 396.04238,826.57206 c 6.15215,0 11.42542,-1.02536 15.08741,-2.63664 l -4.83383,-18.45645 c -0.87888,0.29296 -2.05072,0.58592 -3.36904,0.58592 -2.63663,0 -3.80847,-1.4648 -3.80847,-4.24791 l 0,-89.35267 -26.0734,2.63664 0,87.59491 c 0,15.38037 8.34935,23.8762 22.99733,23.8762 z"
         style="font-style:normal;font-variant:normal;font-weight:800;font-stretch:normal;font-size:146.4797821px;line-height:125%;font-family:'Fira Sans';-inkscape-font-specification:'Fira Sans, Ultra-Bold';text-align:start;letter-spacing:-3.92565942px;writing-mode:lr-tb;text-anchor:start"
         id="path4795"
         inkscape:connector-curvature="0" />
      <path
         d="m 479.84025,799.91274 0,-28.41708 c 0,-18.74941 -9.96062,-28.2706 -33.69035,-28.2706 -8.78878,0 -20.36069,2.05072 -30.02835,6.00568 l 5.71271,16.84517 c 7.76343,-2.63664 15.52686,-4.10143 20.36069,-4.10143 8.93527,0 12.15782,2.34367 12.15782,10.8395 l 0,2.63664 -6.73807,0 c -24.02268,0 -37.05938,9.52118 -37.05938,26.65932 0,14.35502 9.96062,24.46212 25.48748,24.46212 9.08174,0 17.87053,-2.92959 23.43676,-11.42542 4.10144,7.47047 10.40007,10.25358 20.06773,10.98598 l 5.27328,-16.84517 c -3.51552,-1.31832 -4.98032,-3.51552 -4.98032,-9.37471 z m -35.88754,8.34935 c -4.98032,0 -7.76343,-3.36904 -7.76343,-8.64231 0,-6.88455 4.39439,-10.25358 13.7691,-10.25358 l 4.39439,0 0,12.74374 c -2.34368,3.66199 -6.00567,6.15215 -10.40006,6.15215 z"
         style="font-style:normal;font-variant:normal;font-weight:800;font-stretch:normal;font-size:146.4797821px;line-height:125%;font-family:'Fira Sans';-inkscape-font-specification:'Fira Sans, Ultra-Bold';text-align:start;letter-spacing:-3.92565942px;writing-mode:lr-tb;text-anchor:start"
         id="path4797"
         inkscape:connector-curvature="0" />
      <path
         d="m 535.69024,743.51802 c -8.78878,0 -16.55221,6.73807 -19.92125,17.13814 l -2.19719,-14.79446 -22.70437,0 0,78.07372 26.0734,0 0,-37.20586 c 2.34368,-10.8395 6.00567,-17.87053 15.38038,-17.87053 2.49015,0 4.68735,0.43944 7.03103,1.17183 l 4.24791,-25.19452 c -2.78311,-0.87888 -4.98031,-1.31832 -7.90991,-1.31832 z"
         style="font-style:normal;font-variant:normal;font-weight:800;font-stretch:normal;font-size:146.4797821px;line-height:125%;font-family:'Fira Sans';-inkscape-font-specification:'Fira Sans, Ultra-Bold';text-align:start;letter-spacing:-3.92565942px;writing-mode:lr-tb;text-anchor:start"
         id="path4799"
         inkscape:connector-curvature="0" />
    </g>
  </g>
</svg>
