<svg xmlns="http://www.w3.org/2000/svg" width="288" height="182.947" viewBox="0 0 288 182.947"><defs><clipPath id="a"><path d="M0 792h612V0H0z"/></clipPath></defs><path fill="#fff" d="M288 182.947H0V0h288z"/><path fill="#f7b600" d="M4.796 153.22h278.403v24.96H4.796z"/><path fill="#1a1f71" d="M4.796 29.759h278.403V4.799H4.796z"/><g clip-path="url(#a)" transform="matrix(1.33333 0 0 -1.33333 -265.22 618.848)"><path fill="#1a1f71" d="M305.112 421.192l-11.006-51.455h-13.312l11.007 51.455zm56.004-33.226l7.008 19.324 4.031-19.324zm14.86-18.229h12.308l-10.754 51.455h-11.355c-2.559 0-4.715-1.484-5.67-3.772l-19.975-47.683h13.98l2.776 7.684h17.076zm-34.753 16.8c.06 13.578-18.77 14.331-18.646 20.398.041 1.844 1.8 3.808 5.644 4.31 1.907.246 7.166.444 13.13-2.303l2.331 10.916c-3.203 1.158-7.324 2.274-12.45 2.274-13.16 0-22.419-6.99-22.493-17.008-.084-7.408 6.613-11.538 11.648-14.005 5.192-2.522 6.932-4.14 6.907-6.393-.036-3.452-4.14-4.98-7.96-5.038-6.699-.104-10.579 1.81-13.673 3.252l-2.416-11.28c3.115-1.426 8.855-2.667 14.8-2.73 13.99 0 23.137 6.908 23.178 17.606m-55.132 34.656l-21.569-51.455h-14.07l-10.615 41.065c-.643 2.525-1.204 3.453-3.16 4.52-3.202 1.74-8.487 3.365-13.133 4.377l.314 1.493h22.652c2.885 0 5.481-1.92 6.141-5.243l5.607-29.778 13.848 35.021z"/></g></svg>