<svg xmlns="http://www.w3.org/2000/svg" viewBox="0 0 220.314 65"><defs><filter id="a" x="-.015" width="1.031" y="-.054" height="1.107" color-interpolation-filters="sRGB"><feGaussianBlur stdDeviation=".912"/></filter></defs><path d="M150.314 32.7q0-13.51 2.132-30.2h63.473q1.183 8.344 1.42 15.894.474 7.152.474 13.907 0 6.756-.474 14.306-.237 7.55-1.42 15.894h-63.474q-2.132-16.69-2.132-29.8z" style="-inkscape-font-specification:'Aller Display'" font-family="Aller Display" font-size="40" letter-spacing="0" word-spacing="0" fill="#99000f"/><g font-family="Azoft Sans" word-spacing="0"><path d="M133.72 49.006c-3.213 0-6.023.552-8.433 1.656-2.41 1.054-4.42 2.51-6.025 4.367-1.607 1.857-2.812 4.042-3.616 6.552-.803 2.51-1.205 5.197-1.205 8.06 0 2.91.377 5.597 1.13 8.057.804 2.46 2.01 4.594 3.616 6.402 1.656 1.757 3.765 3.136 6.326 4.14 2.61 1.004 5.725 1.508 9.34 1.508 4.67 0 9.238-.83 13.707-2.486-.052-1.958-.353-3.84-.906-5.65-.502-1.806-1.103-3.363-1.806-4.67-1.758.704-3.54 1.232-5.348 1.583-1.807.352-3.44.528-4.896.528-2.26 0-4.093-.426-5.5-1.28-1.354-.853-2.308-2.31-2.86-4.37h22.895c.1-.702.2-1.58.3-2.635.152-1.105.226-2.334.226-3.69 0-2.61-.402-5.02-1.205-7.23-.752-2.26-1.856-4.167-3.312-5.723-1.456-1.607-3.238-2.862-5.347-3.766-2.058-.902-4.418-1.354-7.08-1.354zm37.79 0c-1.908 0-4.067.2-6.477.6-2.36.403-4.746 1.007-7.156 1.81 0 1.004.026 1.908.076 2.71.1.754.226 1.508.377 2.26.2.704.45 1.405.752 2.108.352.703.753 1.483 1.205 2.336 1.707-.602 3.364-1.03 4.97-1.28 1.608-.302 3.015-.452 4.22-.452.903 0 1.78.074 2.634.224.855.1 1.634.327 2.337.678.703.3 1.28.753 1.73 1.355.453.603.704 1.356.755 2.26h-4.594c-1.908 0-3.867.202-5.875.604-2.008.35-3.84 1.002-5.498 1.956-1.657.954-3.012 2.235-4.067 3.842-1.054 1.606-1.582 3.64-1.582 6.1 0 2.51.428 4.644 1.282 6.402.903 1.707 2.133 3.088 3.69 4.142 1.556 1.054 3.414 1.806 5.573 2.258 2.21.502 4.62.754 7.232.754 3.012 0 5.873-.276 8.584-.828 2.71-.553 5.022-1.104 6.93-1.657V65.12c0-2.81-.402-5.22-1.206-7.227-.803-2.06-1.958-3.742-3.464-5.047-1.456-1.306-3.24-2.26-5.348-2.862-2.11-.652-4.467-.978-7.078-.978zm40.447 0c-2.41 0-4.62.3-6.627.902-1.958.603-3.665 1.482-5.12 2.637-1.457 1.105-2.586 2.46-3.39 4.066-.803 1.608-1.205 3.39-1.205 5.35 0 3.112.88 5.572 2.637 7.38 1.757 1.807 3.966 3.087 6.627 3.84l5.12 1.43c.854.252 1.607.554 2.26.906.652.3.978.777.978 1.43 0 .5-.176.903-.527 1.204-.3.302-.702.553-1.204.754-.502.15-1.08.25-1.733.3-.652.05-1.28.077-1.882.077-1.757 0-3.514-.175-5.27-.526-1.758-.402-3.44-.98-5.048-1.733-1.606 3.516-2.534 6.98-2.785 10.394 2.31.854 4.492 1.457 6.55 1.81 2.06.35 4.294.526 6.704.526 2.913 0 5.473-.352 7.683-1.055 2.26-.703 4.142-1.658 5.648-2.863 1.558-1.205 2.713-2.634 3.466-4.29.803-1.658 1.205-3.44 1.205-5.35 0-1.856-.25-3.437-.75-4.743-.503-1.306-1.207-2.41-2.11-3.315-.854-.904-1.91-1.632-3.164-2.184-1.205-.6-2.56-1.105-4.067-1.507l-4.895-1.28c-.703-.2-1.33-.452-1.883-.753-.552-.3-.828-.727-.828-1.28 0-1.305 1.18-1.958 3.54-1.958 1.605 0 3.362.226 5.27.678 1.908.45 3.54.953 4.895 1.505.702-1.405 1.33-3.01 1.882-4.818.552-1.858.88-3.59.98-5.197-2.21-.753-4.444-1.33-6.703-1.733-2.26-.4-4.345-.6-6.253-.6zm-121.105.224c-1.005 0-2.058.05-3.163.15-1.055.1-2.134.277-3.24.528l-.075 38.938h26.96c.252-1.004.404-1.934.454-2.787.1-.905.15-1.76.15-2.562 0-.803-.05-1.63-.15-2.484-.05-.854-.203-1.783-.454-2.787H97.104l.074-28.32c-1.055-.25-2.134-.426-3.24-.526-1.103-.1-2.132-.15-3.086-.15zm42.418 9.34c1.857 0 3.262.602 4.216 1.807 1.004 1.155 1.558 2.612 1.66 4.37h-12.052c.2-2.11.878-3.667 2.033-4.67 1.155-1.005 2.536-1.507 4.143-1.507zm39.37 13.03h4.292v8.283c-.402.1-1.03.2-1.883.3-.855.1-1.506.153-1.958.153-.653 0-1.382-.052-2.186-.152-.753-.1-1.48-.3-2.183-.602-.653-.3-1.205-.73-1.657-1.28-.45-.604-.677-1.405-.677-2.41 0-1.355.6-2.41 1.805-3.163 1.205-.755 2.686-1.13 4.444-1.13z" style="line-height:125%;-inkscape-font-specification:'Azoft Sans'" letter-spacing=".5" opacity=".8" fill="#fff" stroke="#fff" stroke-width="2.25" filter="url(#a)" transform="translate(-79.686 -37.5)"/><text style="line-height:125%;-inkscape-font-specification:'Azoft Sans'" x="65.341" y="120.441" font-size="40" letter-spacing="0" transform="translate(-79.686 -37.5)"/><path d="M54.035 11.506c-3.214 0-6.024.552-8.434 1.656-2.41 1.054-4.418 2.51-6.024 4.367-1.607 1.857-2.812 4.042-3.616 6.552-.803 2.51-1.205 5.197-1.205 8.06 0 2.91.376 5.597 1.13 8.057.803 2.46 2.008 4.594 3.615 6.402 1.656 1.757 3.765 3.136 6.326 4.14 2.61 1.004 5.725 1.508 9.34 1.508 4.67 0 9.238-.83 13.707-2.486-.05-1.958-.352-3.84-.905-5.65-.502-1.806-1.103-3.363-1.806-4.67-1.758.704-3.54 1.232-5.348 1.583-1.808.352-3.44.528-4.896.528-2.26 0-4.093-.426-5.5-1.28-1.354-.853-2.308-2.31-2.86-4.37h22.895c.1-.702.202-1.58.302-2.635.15-1.105.225-2.334.225-3.69 0-2.61-.402-5.02-1.205-7.23-.753-2.26-1.857-4.167-3.313-5.723-1.456-1.607-3.238-2.862-5.347-3.766-2.06-.902-4.42-1.354-7.08-1.354zm37.79 0c-1.91 0-4.068.2-6.478.6-2.36.403-4.746 1.007-7.156 1.81 0 1.004.027 1.908.077 2.71.1.754.226 1.508.377 2.26.2.704.45 1.405.752 2.108.352.703.753 1.483 1.205 2.336 1.708-.602 3.365-1.03 4.972-1.28 1.607-.302 3.014-.452 4.22-.452.902 0 1.78.074 2.633.224.854.1 1.633.327 2.336.678.704.3 1.28.753 1.732 1.355.452.603.703 1.356.754 2.26h-4.594c-1.908 0-3.867.202-5.875.604-2.008.35-3.84 1.002-5.498 1.956-1.658.954-3.013 2.235-4.068 3.842-1.054 1.606-1.582 3.64-1.582 6.1 0 2.51.428 4.644 1.282 6.402.903 1.707 2.133 3.088 3.69 4.142 1.556 1.054 3.414 1.806 5.573 2.258 2.21.502 4.62.754 7.23.754 3.013 0 5.874-.276 8.585-.828 2.71-.553 5.022-1.104 6.93-1.657V27.62c0-2.81-.402-5.22-1.206-7.227-.803-2.06-1.958-3.742-3.464-5.047-1.456-1.306-3.24-2.26-5.348-2.862-2.11-.652-4.467-.978-7.078-.978zm40.446 0c-2.41 0-4.618.3-6.626.902-1.958.603-3.665 1.482-5.12 2.637-1.457 1.105-2.586 2.46-3.39 4.066-.803 1.608-1.205 3.39-1.205 5.35 0 3.112.88 5.572 2.636 7.38 1.757 1.807 3.966 3.087 6.627 3.84l5.12 1.43c.855.252 1.608.554 2.26.906.653.3.98.777.98 1.43 0 .5-.177.903-.528 1.204-.3.302-.703.553-1.205.754-.502.15-1.08.25-1.733.3-.652.05-1.28.077-1.882.077-1.758 0-3.515-.175-5.272-.526-1.757-.402-3.44-.98-5.047-1.733-1.606 3.516-2.534 6.98-2.785 10.394 2.31.854 4.493 1.457 6.552 1.81 2.058.35 4.293.526 6.703.526 2.912 0 5.472-.352 7.682-1.055 2.26-.703 4.142-1.658 5.648-2.863 1.557-1.205 2.712-2.634 3.465-4.29.803-1.658 1.205-3.44 1.205-5.35 0-1.856-.25-3.437-.752-4.743-.502-1.306-1.206-2.41-2.11-3.315-.853-.904-1.908-1.632-3.163-2.184-1.205-.6-2.56-1.105-4.067-1.507l-4.894-1.28c-.704-.2-1.332-.452-1.884-.753-.552-.3-.828-.727-.828-1.28 0-1.305 1.18-1.958 3.54-1.958 1.605 0 3.362.226 5.27.678 1.908.45 3.54.953 4.895 1.505.703-1.405 1.33-3.01 1.883-4.818.552-1.858.88-3.59.98-5.197-2.21-.753-4.444-1.33-6.703-1.733-2.26-.4-4.344-.6-6.252-.6zm-121.104.224c-1.005 0-2.058.05-3.163.15-1.054.1-2.133.277-3.238.528L4.69 51.346h26.96c.25-1.004.403-1.934.453-2.787.1-.905.15-1.76.15-2.562 0-.803-.05-1.63-.15-2.484-.05-.854-.202-1.783-.453-2.787H17.418l.074-28.32c-1.055-.25-2.134-.426-3.24-.526-1.103-.1-2.132-.15-3.086-.15zm42.418 9.34c1.857 0 3.262.602 4.216 1.807 1.004 1.155 1.558 2.612 1.66 4.37H47.407c.2-2.11.878-3.667 2.033-4.67 1.156-1.005 2.537-1.507 4.144-1.507zm39.37 13.03h4.292v8.283c-.402.1-1.03.2-1.883.3-.854.1-1.505.153-1.957.153-.653 0-1.382-.052-2.186-.152-.753-.1-1.48-.3-2.183-.602-.653-.3-1.205-.73-1.657-1.28-.45-.604-.677-1.405-.677-2.41 0-1.355.6-2.41 1.806-3.163 1.204-.755 2.685-1.13 4.443-1.13z" style="line-height:125%;-inkscape-font-specification:'Azoft Sans'" letter-spacing=".5" fill="#2e3333"/><path style="line-height:125%;-inkscape-font-specification:'Azoft Sans'" d="M172.188 51.27q-1.958.3-3.54.452-1.58.15-2.86.15-1.282 0-2.863-.15-1.582-.15-3.465-.452V12.41q1.657-.378 3.24-.528 1.656-.15 3.162-.15 1.43 0 3.088.15 1.657.15 3.238.527v38.86zM188.803 23.028h-11.146q-.377-1.506-.527-2.787-.076-1.354-.076-2.56 0-1.204.076-2.485.15-1.28.527-2.786h35.02q.377 1.505.452 2.785.15 1.28.15 2.486 0 1.206-.15 2.56-.076 1.282-.453 2.788H201.53V51.27q-1.957.3-3.54.452-1.58.15-2.86.15-1.28 0-2.863-.15-1.58-.15-3.464-.452V23.028z" font-size="75.313" letter-spacing=".5" fill="#fff"/></g></svg>