<?xml version="1.0" encoding="UTF-8" standalone="no"?>
<svg
   xmlns:dc="http://purl.org/dc/elements/1.1/"
   xmlns:cc="http://creativecommons.org/ns#"
   xmlns:rdf="http://www.w3.org/1999/02/22-rdf-syntax-ns#"
   xmlns:svg="http://www.w3.org/2000/svg"
   xmlns="http://www.w3.org/2000/svg"
   viewBox="0 0 114.21798 114.18025"
   height="114.18024"
   width="114.21798"
   xml:space="preserve"
   version="1.1"
   id="svg4184"><metadata
     id="metadata4190"><rdf:RDF><cc:Work
         rdf:about=""><dc:format>image/svg+xml</dc:format><dc:type
           rdf:resource="http://purl.org/dc/dcmitype/StillImage" /><dc:title></dc:title></cc:Work></rdf:RDF></metadata><defs
     id="defs4188" /><g
     transform="matrix(1.25,0,0,-1.25,-305.60663,146.40087)"
     id="g4192"><g
       transform="matrix(1.5,0,0,1.5,-119.14699,-11.295916)"
       id="g4250"><path
         id="path4206"
         style="fill:#fab20b;fill-opacity:0.12941176;fill-rule:nonzero;stroke:none;stroke-width:0.80000007;stroke-miterlimit:4;stroke-dasharray:none;stroke-opacity:1"
         d="m 248.04249,76.264234 c -1.233,-9.7855 5.313,-22.2292 8.706,-24.8749 2.452,4.2914 5.435,15.3996 2.486,25.1059 -3.088,10.164 -9.959,9.554 -11.192,-0.231" /><path
         id="path4208"
         style="fill:#fab20b;fill-opacity:0.12941176;fill-rule:nonzero;stroke:none;stroke-width:0.80000007;stroke-miterlimit:4;stroke-dasharray:none;stroke-opacity:1"
         d="m 257.51649,3.5436344 c -3.593,9.1847996 -0.297,22.8546996 2.344,26.2515996 3.428,-3.5606 9.044,-13.5973 8.565,-23.7312996 -0.504,-10.6109 -7.313,-11.7023 -10.909,-2.5203" /><path
         id="path4210"
         style="fill:#fab20b;fill-opacity:0.12941176;fill-rule:nonzero;stroke:none;stroke-width:0.80000007;stroke-miterlimit:4;stroke-dasharray:none;stroke-opacity:1"
         d="m 222.26549,49.708434 c 7.857,-5.9609 21.908,-6.514 25.896,-4.8972 -2.491,4.2691 -10.619,12.405 -20.5,14.7047 -10.346,2.4066 -13.253,-3.8481 -5.396,-9.8075" /><path
         id="path4212"
         style="fill:#fab20b;fill-opacity:0.12941176;fill-rule:nonzero;stroke:none;stroke-width:0.80000007;stroke-miterlimit:4;stroke-dasharray:none;stroke-opacity:1"
         d="m 289.96249,21.323734 c -9.75,1.4797 -19.94,11.1691 -21.561,15.1535 4.798,1.1906 16.297,1.0348 24.833,-4.4477 8.937,-5.7402 6.479,-12.1851 -3.272,-10.7058" /><path
         id="path4214"
         style="fill:#fab20b;fill-opacity:0.12941176;fill-rule:nonzero;stroke:none;stroke-width:0.80000007;stroke-miterlimit:4;stroke-dasharray:none;stroke-opacity:1"
         d="m 231.60149,66.461634 c 3.824,-9.0911 15.716,-16.5934 19.977,-17.1887 -0.023,4.9426 -2.993,16.0527 -10.4,22.9843 -7.757,7.258 -13.401,3.295 -9.577,-5.7956" /><path
         id="path4216"
         style="fill:#fab20b;fill-opacity:0.12941176;fill-rule:nonzero;stroke:none;stroke-width:0.80000007;stroke-miterlimit:4;stroke-dasharray:none;stroke-opacity:1"
         d="m 275.99049,8.0217344 c -7.705,6.1569996 -11.684,19.6433996 -11.096,23.9058996 4.75,-1.3692 14.632,-7.2543 19.281,-16.2696 4.87,-9.4409996 -0.481,-13.7924996 -8.185,-7.6362996" /><path
         id="path4218"
         style="fill:#fab20b;fill-opacity:0.12941176;fill-rule:nonzero;stroke:none;stroke-width:0.80000007;stroke-miterlimit:4;stroke-dasharray:none;stroke-opacity:1"
         d="m 291.08049,58.072534 c -6.156,-7.7043 -19.643,-11.6852 -23.905,-11.0953 1.369,4.7496 7.253,14.6305 16.269,19.2808 9.441,4.8702 13.792,-0.4812 7.636,-8.1855" /><path
         id="path4220"
         style="fill:#fab20b;fill-opacity:0.12941176;fill-rule:nonzero;stroke:none;stroke-width:0.80000007;stroke-miterlimit:4;stroke-dasharray:none;stroke-opacity:1"
         d="m 277.89849,72.159234 c -1.479,-9.7492 -11.169,-19.9398 -15.154,-21.5609 -1.189,4.7972 -1.034,16.2969 4.449,24.8319 5.741,8.938 12.183,6.479 10.705,-3.271" /><path
         id="path4222"
         style="fill:#fab20b;fill-opacity:0.12941176;fill-rule:nonzero;stroke:none;stroke-width:0.80000007;stroke-miterlimit:4;stroke-dasharray:none;stroke-opacity:1"
         d="m 249.14449,4.6530344 c 5.959,7.8569996 6.512,21.9085996 4.896,25.8964996 -4.269,-2.4918 -12.406,-10.6196 -14.704,-20.5004 -2.408,-10.34569965 3.847,-13.2523996 9.808,-5.3960996" /><path
         id="path4224"
         style="fill:#fab20b;fill-opacity:0.12941176;fill-rule:nonzero;stroke:none;stroke-width:0.80000007;stroke-miterlimit:4;stroke-dasharray:none;stroke-opacity:1"
         d="m 222.60649,30.501034 c 9.784,-1.2328 22.229,5.3152 24.875,8.707 -4.292,2.4524 -15.4,5.4356 -25.106,2.4856 -10.164,-3.0883 -9.554,-9.959 0.231,-11.1926" /><path
         id="path4226"
         style="fill:#fab20b;fill-opacity:0.12941176;fill-rule:nonzero;stroke:none;stroke-width:0.80000007;stroke-miterlimit:4;stroke-dasharray:none;stroke-opacity:1"
         d="m 295.35549,39.732734 c -9.183,-3.5942 -22.853,-0.2965 -26.249,2.3433 3.56,3.4293 13.597,9.0445 23.729,8.5637 10.611,-0.502 11.706,-7.3125 2.52,-10.907" /><path
         id="path4228"
         style="fill:#fab20b;fill-opacity:0.12941176;fill-rule:nonzero;stroke:none;stroke-width:0.80000007;stroke-miterlimit:4;stroke-dasharray:none;stroke-opacity:1"
         d="m 266.79149,41.665934 c 0.584,-4.6883 -2.744,-8.9618 -7.432,-9.5454 -4.689,-0.5835 -8.961,2.7442 -9.545,7.4325 -0.584,4.6879 2.743,8.9613 7.431,9.5449 4.689,0.584 8.962,-2.7438 9.546,-7.432" /><path
         id="path4230"
         style="fill:#fab20b;fill-opacity:0.12941176;fill-rule:nonzero;stroke:none;stroke-width:0.80000007;stroke-miterlimit:4;stroke-dasharray:none;stroke-opacity:1"
         d="m 231.11749,14.899534 c 9.39,3.0175 17.902,14.2113 18.865,18.4046 -4.925,0.4079 -16.253,-1.5828 -23.803,-8.3586 -7.906,-7.0941 -4.45,-13.0625 4.938,-10.046" /></g></g></svg>