<?xml version="1.0" encoding="UTF-8" standalone="no"?>
<svg
   xmlns:dc="http://purl.org/dc/elements/1.1/"
   xmlns:cc="http://creativecommons.org/ns#"
   xmlns:rdf="http://www.w3.org/1999/02/22-rdf-syntax-ns#"
   xmlns:svg="http://www.w3.org/2000/svg"
   xmlns="http://www.w3.org/2000/svg"
   version="1.1"
   id="svg2"
   viewBox="0 0 402.03719 135.36"
   height="38.201599mm"
   width="113.46383mm">
  <defs
     id="defs4" />
  <metadata
     id="metadata7">
    <rdf:RDF>
      <cc:Work
         rdf:about="">
        <dc:format>image/svg+xml</dc:format>
        <dc:type
           rdf:resource="http://purl.org/dc/dcmitype/StillImage" />
        <dc:title></dc:title>
      </cc:Work>
    </rdf:RDF>
  </metadata>
  <g
     transform="translate(-170.02865,-722.47748)"
     id="layer1">
    <g
       id="text4136"
       style="font-style:normal;font-weight:normal;font-size:40px;line-height:125%;font-family:sans-serif;letter-spacing:0px;word-spacing:0px;fill:#000000;fill-opacity:1;stroke:none;stroke-width:1px;stroke-linecap:butt;stroke-linejoin:miter;stroke-opacity:1">
      <path
         id="path4137"
         style="font-style:normal;font-variant:normal;font-weight:500;font-stretch:expanded;font-size:180px;line-height:125%;font-family:'Helvetica Neue LT Std';-inkscape-font-specification:'Helvetica Neue LT Std, Medium Expanded';text-align:start;letter-spacing:-11px;word-spacing:0px;writing-mode:lr-tb;text-anchor:start"
         d="m 170.02865,791.59748 c 0.9,29.16 33.12,33.48 53.46,33.48 29.52,0 52.74,-8.28 52.74,-32.58 0,-22.14 -20.52,-25.2 -51.84,-29.7 -23.94,-3.42 -26.28,-4.68 -26.28,-12.42 0,-5.04 7.56,-10.98 21.6,-10.98 8.46,0 25.02,1.62 27,15.84 l 25.92,0 c -1.44,-30.6 -36.9,-32.76 -51.66,-32.76 -16.02,0 -47.7,3.6 -47.7,30.78 0,21.78 15.48,25.2 45,29.16 26.82,3.6 30.96,6.12 30.96,13.5 0,9 -13.5,12.24 -25.92,12.24 -9,0 -25.56,-2.16 -26.28,-16.56 l -27,0 z" />
      <path
         id="path4139"
         style="font-style:normal;font-variant:normal;font-weight:500;font-stretch:expanded;font-size:180px;line-height:125%;font-family:'Helvetica Neue LT Std';-inkscape-font-specification:'Helvetica Neue LT Std, Medium Expanded';text-align:start;letter-spacing:-11px;word-spacing:0px;writing-mode:lr-tb;text-anchor:start"
         d="m 336.4074,742.63748 c 23.4,0 32.22,15.66 32.22,31.5 0,16.2 -8.82,31.86 -32.22,31.86 -23.22,0 -32.04,-15.66 -32.04,-31.86 0,-15.84 8.82,-31.5 32.04,-31.5 z m -55.8,115.2 24.84,0 0,-49.5 0.36,0 c 1.8,5.76 16.74,16.74 36.54,16.74 36.36,0 52.2,-26.46 52.2,-50.94 0,-24.12 -15.84,-50.58 -52.2,-50.58 -14.94,0 -29.16,4.68 -36.54,16.2 l -0.36,0 0,-13.68 -24.84,0 0,131.76 z" />
      <path
         id="path4141"
         style="letter-spacing:-13px"
         d="m 399.68553,821.47748 24.84,0 0,-46.08 c 0,-22.14 17.82,-28.8 30.42,-28.8 4.32,0 9,0.18 15.84,2.34 l 0,-24.48 c -3.24,-0.54 -6.12,-0.9 -9.9,-0.9 -19.08,0 -29.34,10.26 -36,21.06 l -0.36,0 0,-18.54 -24.84,0 0,95.4 z" />
      <path
         id="path4143"
         style="letter-spacing:-13px"
         d="m 502.58584,817.22748 -5.58,11.52 c -2.88,5.94 -7.74,7.38 -14.4,7.38 -5.4,0 -10.44,-0.18 -12.42,-0.36 l 0,19.08 c 4.86,0.18 11.34,0.36 15.48,0.36 20.7,0 26.82,-3.06 34.38,-19.44 l 52.02,-112.32 -26.46,0 -29.88,68.22 -30.6,-68.22 -27,0 44.46,93.78 z" />
    </g>
  </g>
</svg>
