<svg xmlns="http://www.w3.org/2000/svg" viewBox="0 0 299.87 111.014"><g style="line-height:125%" font-size="146.48" font-family="Fira Sans" letter-spacing="-3.926" word-spacing="0" font-weight="800"><path d="M120.985 52.098c-10.115 0-17.65 5.43-17.65 14.052 0 6.924 3.53 11.472 14.527 14.934 6.517 1.968 8.146 3.326 8.146 6.45 0 3.053-2.376 5.09-6.72 5.09-4.55 0-8.282-1.765-11.676-4.684l-6.246 6.924c3.87 3.733 9.776 6.856 18.397 6.856 12.083 0 19.278-6.245 19.278-15.138 0-8.553-4.683-12.558-13.982-15.477-7.06-2.308-8.825-3.258-8.825-5.974 0-2.578 2.036-4.004 5.702-4.004 3.733 0 6.992 1.29 10.25 3.87l5.634-6.653c-4.21-4.005-9.504-6.245-16.835-6.245zM162.14 91.198c-1.29.747-2.51 1.018-3.665 1.018-1.97 0-3.123-1.086-3.123-4.48V72.598h6.992l1.222-8.28h-8.214V55.22l-12.083 1.426v7.67h-4.685V72.6h4.684v15.274c0 9.028 4.004 13.848 12.557 13.848 3.326 0 7.4-.95 10.318-2.987l-4.005-7.535z" style="line-height:125%;-inkscape-font-specification:'Fira Sans, Ultra-Bold';text-align:start"/><path d="M199.07 81.83c0-11.947-6.653-18.735-17.175-18.735-11.54 0-17.446 8.757-17.446 19.482 0 11.2 6.11 19.143 18.803 19.143 6.04 0 10.93-2.24 14.46-5.16l-4.89-6.652c-3.122 2.173-5.633 3.19-8.416 3.19-4.21 0-6.992-1.357-7.74-7.195h22.2c.066-1.222.202-2.92.202-4.073zm-11.88-2.986h-10.522c.475-5.974 2.24-7.943 5.43-7.943 3.87 0 5.024 3.192 5.092 7.536v.408zM213.022 101.72c2.85 0 5.295-.475 6.992-1.222l-2.24-8.553c-.408.136-.95.27-1.562.27-1.222 0-1.765-.677-1.765-1.967v-41.41l-12.083 1.223v40.595c0 7.128 3.87 11.065 10.658 11.065zM231.488 101.72c2.85 0 5.295-.475 6.992-1.222l-2.24-8.553c-.408.136-.95.27-1.562.27-1.222 0-1.765-.677-1.765-1.967v-41.41l-12.083 1.223v40.595c0 7.128 3.87 11.065 10.658 11.065zM270.322 89.365v-13.17c0-8.688-4.616-13.1-15.613-13.1-4.074 0-9.437.95-13.917 2.783l2.647 7.806c3.598-1.22 7.196-1.9 9.436-1.9 4.14 0 5.634 1.086 5.634 5.023v1.222h-3.122c-11.133 0-17.175 4.41-17.175 12.354 0 6.652 4.616 11.336 11.812 11.336 4.21 0 8.282-1.358 10.86-5.295 1.902 3.462 4.82 4.752 9.3 5.09l2.445-7.805c-1.63-.61-2.308-1.63-2.308-4.345zm-16.63 3.87c-2.31 0-3.6-1.562-3.6-4.005 0-3.19 2.037-4.752 6.382-4.752h2.036v5.906c-1.086 1.697-2.783 2.85-4.82 2.85zM296.204 63.23c-4.073 0-7.67 3.123-9.232 7.943l-1.018-6.856h-10.522v36.18h12.083v-17.24c1.086-5.024 2.783-8.283 7.128-8.283 1.154 0 2.172.204 3.258.543l1.97-11.675c-1.29-.408-2.308-.61-3.666-.61z" style="line-height:125%;-inkscape-font-specification:'Fira Sans, Ultra-Bold';text-align:start"/></g><text style="line-height:125%" x="150" y="197.362" font-size="180" font-family="sans-serif" letter-spacing="0" word-spacing="0" transform="translate(-133.163 -603.877)"/><g transform="matrix(.18464 0 0 .18464 -22.04 -16.938)"><rect ry="30" rx="30" y="92.362" x="120" height="600" width="420" fill="#fff" stroke="#fff" stroke-width="1.25"/><path d="M150 92.36c-16.62 0-30 13.38-30 30v18.505c23.484-25.55 57.418-42.17 92.92-48.504H150zm131.556 0c37.55 6.52 61 23.484 89.336 44.736l33.438-27.358h2.025l106.39 113.483-36.476 33.438h-2.026c-40.53-31.41-71.94-63.834-129.696-63.834-83.085 0-136.787 52.688-136.787 143.88l-2.024 2.026c-31.637-4.363-63.268-18.423-85.736-40.902v51.484c66.453 54.055 85.916 32.585 167.808 55.278 53.702 15.198 94.23 80.046 94.23 115.51h-2.027c-29.383-24.318-72.95-20.265-133.745-41.543C210.045 465.88 150.363 431.35 120 369.914v207.582l125.25 90.535v2.03c-49.666 0-91.11-11.424-125.25-37.95v30.25c0 16.62 13.38 30 30 30h187.935c53.728-28.06 92.738-81.583 92.738-161.116 0-37.49-14.184-71.94-34.45-100.31l2.027-2.026c62.088 47.48 129.105 108.95 141.75 190.338V122.36c0-16.62-13.38-30-30-30H281.556z" fill="#c30000"/></g></svg>