<?xml version="1.0" encoding="UTF-8" standalone="no"?>
<svg
   xmlns:dc="http://purl.org/dc/elements/1.1/"
   xmlns:cc="http://creativecommons.org/ns#"
   xmlns:rdf="http://www.w3.org/1999/02/22-rdf-syntax-ns#"
   xmlns:svg="http://www.w3.org/2000/svg"
   xmlns="http://www.w3.org/2000/svg"
   width="120"
   height="120"
   viewBox="0 0 120 120"
   version="1.1"
   id="svg4">
  <metadata
     id="metadata10">
    <rdf:RDF>
      <cc:Work
         rdf:about="">
        <dc:format>image/svg+xml</dc:format>
        <dc:type
           rdf:resource="http://purl.org/dc/dcmitype/StillImage" />
        <dc:title></dc:title>
      </cc:Work>
    </rdf:RDF>
  </metadata>
  <defs
     id="defs8" />
  <path
     style="stroke-width:1"
     id="path2"
     d="M 17.14285714285721,91.42857142857138 H 74.28571428571433 V 84.28571428571426 H 17.14285714285722 Z m 0,-28.57142857142851 H 74.28571428571433 V 55.7142857142857 H 17.14285714285722 Z m 87.49999999999998,24.99999999999998 q 0,-2.2321428571429 -1.5625000000001,-3.7946428571429 -1.5624999999999,-1.5625 -3.7946428571428,-1.5625 -2.23214285714286,0 -3.79464285714286,1.5625 -1.5625,1.5625 -1.5625,3.7946428571429 0,2.23214285714282 1.5625,3.79464285714282 1.5625,1.56250000000003 3.79464285714286,1.56250000000003 2.2321428571429,0 3.7946428571428,-1.56250000000003 1.5625000000001,-1.5625 1.5625000000001,-3.79464285714282 z M 17.14285714285721,34.28571428571428 H 74.28571428571432 V 27.14285714285715 H 17.14285714285721 Z m 87.49999999999998,25 q 0,-2.23214285714285 -1.5625000000001,-3.79464285714285 -1.5624999999999,-1.5625 -3.7946428571428,-1.5625 -2.23214285714286,0 -3.79464285714286,1.5625 -1.5625,1.5625 -1.5625,3.79464285714285 0,2.23214285714286 1.5625,3.79464285714288 1.5625,1.56249999999996 3.79464285714286,1.56249999999996 2.2321428571429,0 3.7946428571428,-1.56249999999996 1.5625000000001,-1.56250000000001 1.5625000000001,-3.79464285714288 z m 0,-28.57142857142856 q 0,-2.23214285714286 -1.5625000000001,-3.79464285714285 -1.5624999999999,-1.56249999999999 -3.7946428571428,-1.56249999999999 -2.23214285714286,0 -3.79464285714286,1.56249999999999 -1.5625,1.56249999999999 -1.5625,3.79464285714285 0,2.23214285714286 1.5625,3.79464285714286 1.5625,1.56250000000002 3.79464285714286,1.56250000000002 2.2321428571429,0 3.7946428571428,-1.56250000000002 1.5625000000001,-1.56249999999998 1.5625000000001,-3.79464285714286 z M 110,77.14285714285712 v 21.4285714285714 H 10.00000000000009 v -21.4285714285714 z m 0,-28.57142857142853 V 70 H 10.00000000000009 V 48.57142857142859 Z M 110,20 V 41.42857142857143 H 10.00000000000009 V 20.00000000000001 Z" />
</svg>
