<svg xmlns="http://www.w3.org/2000/svg" width="120" height="120" viewBox="0 0 120 120"><path d="M17.143 91.429h57.143v-7.143H17.143zm0-28.572h57.143v-7.143H17.143zm87.5 25q0-2.232-1.563-3.795-1.562-1.562-3.794-1.562t-3.795 1.562q-1.562 1.563-1.562 3.795t1.562 3.795q1.563 1.562 3.795 1.562t3.794-1.562q1.563-1.563 1.563-3.795zm-87.5-53.571h57.143v-7.143H17.143zm87.5 25q0-2.232-1.563-3.795-1.562-1.562-3.794-1.562T95.49 55.49q-1.562 1.563-1.562 3.795t1.562 3.794q1.563 1.563 3.795 1.563t3.794-1.563q1.563-1.562 1.563-3.794zm0-28.572q0-2.232-1.563-3.794-1.562-1.563-3.794-1.563T95.49 26.92q-1.562 1.562-1.562 3.794t1.562 3.795q1.563 1.562 3.795 1.562t3.794-1.562q1.563-1.563 1.563-3.795zM110 77.143V98.57H10V77.143zm0-28.572V70H10V48.571zM110 20v21.429H10V20z"/></svg>