<svg xmlns="http://www.w3.org/2000/svg" width="120" height="120" viewBox="0 0 120 120"><path d="M39.412 89.021l17.647-8.823v-14.43l-17.647 7.536zM36.47 68.157l18.566-7.95-18.566-7.95-18.567 7.95zm50 20.864l17.647-8.823v-14.43L86.47 73.303zm-2.942-20.864l18.567-7.95-18.567-7.95-18.566 7.95zM62.941 54.692l17.647-7.583V34.885l-17.647 7.537zM60 37.275l20.267-8.686L60 19.904l-20.267 8.685zm50 23.805v19.118q0 1.654-.873 3.079-.873 1.424-2.39 2.16L86.15 95.73q-1.149.643-2.62.643-1.47 0-2.62-.643L60.323 85.437q-.184-.092-.322-.184-.092.092-.322.184L39.09 95.73q-1.149.643-2.62.643-1.47 0-2.619-.643L13.263 85.437q-1.517-.736-2.39-2.16Q10 81.852 10 80.197V61.08q0-1.746.988-3.217.988-1.47 2.597-2.206l19.944-8.548V28.727q0-1.746.988-3.217.989-1.47 2.597-2.206l20.588-8.823q1.057-.46 2.298-.46 1.24 0 2.298.46l20.588 8.823q1.608.736 2.597 2.206.988 1.47.988 3.217v18.382l19.944 8.548q1.655.735 2.62 2.206.965 1.47.965 3.217z"/></svg>