<svg xmlns="http://www.w3.org/2000/svg" viewBox="0 0 120 120" height="120" width="120"><path d="M37.273 96.364q0 5.681-3.978 9.659Q29.318 110 23.636 110q-5.681 0-9.659-3.977Q10 102.045 10 96.363q0-5.681 3.977-9.658 3.978-3.978 9.66-3.978 5.681 0 9.658 3.978 3.978 3.977 3.978 9.659zm36.363 8.735q.142 1.99-1.207 3.41Q71.151 110 69.091 110h-9.588q-1.776 0-3.054-1.172-1.279-1.172-1.42-2.947-1.563-16.265-13.104-27.806-11.541-11.54-27.806-13.103-1.775-.142-2.947-1.42Q10 62.271 10 60.496V50.91q0-2.06 1.491-3.338 1.208-1.207 3.054-1.207h.356q11.363.923 21.733 5.717 10.369 4.794 18.394 12.89 8.097 8.026 12.891 18.395 4.794 10.37 5.717 21.733zm36.364.142q.142 1.918-1.278 3.339-1.279 1.42-3.267 1.42H95.298q-1.846 0-3.16-1.243t-1.385-3.018q-.852-15.27-7.173-29.013-6.321-13.743-16.442-23.864-10.121-10.12-23.864-16.442-13.743-6.32-29.013-7.244-1.775-.07-3.018-1.385Q10 26.477 10 24.701V14.546q0-1.988 1.42-3.267Q12.7 10 14.545 10h.214q18.607.923 35.617 8.523 17.01 7.6 30.22 20.88 13.282 13.21 20.881 30.22 7.6 17.01 8.523 35.618z"/></svg>