<?xml version="1.0" encoding="UTF-8" standalone="no"?>
<svg
   xmlns:dc="http://purl.org/dc/elements/1.1/"
   xmlns:cc="http://creativecommons.org/ns#"
   xmlns:rdf="http://www.w3.org/1999/02/22-rdf-syntax-ns#"
   xmlns:svg="http://www.w3.org/2000/svg"
   xmlns="http://www.w3.org/2000/svg"
   width="120"
   height="120"
   viewBox="0 0 120 120"
   version="1.1"
   id="svg4">
  <metadata
     id="metadata10">
    <rdf:RDF>
      <cc:Work
         rdf:about="">
        <dc:format>image/svg+xml</dc:format>
        <dc:type
           rdf:resource="http://purl.org/dc/dcmitype/StillImage" />
        <dc:title></dc:title>
      </cc:Work>
    </rdf:RDF>
  </metadata>
  <defs
     id="defs8" />
  <path
     style="stroke-width:1"
     id="path2"
     d="m 63.84615384615393,55.91346153846151 v 34.85576923076914 q 0,6.25000000000003 -4.5673076923077,10.81730769230775 -4.56730769230769,4.5673076923078 -10.81730769230769,4.5673076923078 -6.24999999999999,0 -10.81730769230769,-4.5673076923078 -4.5673076923077,-4.56730769230772 -4.5673076923077,-10.81730769230775 0,-1.56249999999997 1.14182692307692,-2.70432692307693 1.14182692307692,-1.14182692307688 2.70432692307692,-1.14182692307688 1.56250000000002,0 2.70432692307692,1.14182692307688 1.14182692307692,1.14182692307696 1.14182692307692,2.70432692307693 0,3.00480769230774 2.34375000000005,5.34855769230771 2.34374999999997,2.34375 5.34855769230765,2.34375 3.00480769230768,0 5.34855769230772,-2.34375 2.34374999999998,-2.34374999999997 2.34374999999998,-5.34855769230771 V 55.91346153846151 q 1.98317307692308,-0.66105769230767 3.84615384615386,-0.66105769230767 1.86298076923074,0 3.84615384615384,0.66105769230767 z M 110,57.53605769230767 q 0,0.78124999999998 -0.5709134615384,1.35216346153847 -0.5709134615385,0.57091346153846 -1.3521634615386,0.57091346153846 -0.6610576923076,0 -1.3822115384615,-0.60096153846155 Q 103.75,56.09375 101.1057692307692,54.71153846153844 98.46153846153846,53.3293269230769 94.97596153846153,53.3293269230769 q -4.08653846153845,0 -7.69230769230771,2.2235576923077 -3.60576923076924,2.2235576923077 -6.18990384615381,5.82932692307689 -0.42067307692311,0.60096153846155 -1.05168269230772,1.68269230769229 -0.63100961538463,1.0817307692308 -0.87139423076924,1.44230769230775 -0.66105769230771,1.02163461538457 -1.68269230769228,1.02163461538457 -1.08173076923086,0 -1.74278846153851,-1.02163461538457 -0.24038461538467,-0.36057692307692 -0.87139423076924,-1.44230769230775 -0.63100961538463,-1.08173076923075 -1.05168269230772,-1.68269230769229 -2.58413461538456,-3.60576923076922 -6.15985576923075,-5.8293269230769 -3.57572115384613,-2.22355769230768 -7.66225961538459,-2.22355769230768 -4.08653846153844,0 -7.66225961538463,2.22355769230768 -3.57572115384612,2.22355769230768 -6.15985576923074,5.8293269230769 -0.42067307692309,0.60096153846154 -1.05168269230769,1.68269230769229 -0.63100961538457,1.0817307692308 -0.87139423076924,1.44230769230775 -0.66105769230766,1.02163461538457 -1.74278846153841,1.02163461538457 -1.02163461538459,0 -1.68269230769232,-1.02163461538457 -0.24038461538462,-0.36057692307692 -0.87139423076923,-1.44230769230775 -0.63100961538463,-1.08173076923075 -1.0516826923077,-1.68269230769229 -2.58413461538465,-3.60576923076922 -6.18990384615388,-5.8293269230769 -3.60576923076924,-2.22355769230768 -7.69230769230766,-2.22355769230768 -3.48557692307693,0 -6.12980769230773,1.38221153846154 Q 16.25000000000001,56.09375 13.30528846153845,58.85817307692305 q -0.72115384615383,0.60096153846154 -1.38221153846153,0.60096153846154 -0.78125,0 -1.35216346153846,-0.57091346153846 -0.570913461538481,-0.57091346153846 -0.570913461538481,-1.35216346153846 0,-0.30048076923076 0.06009615384615,-0.42067307692308 Q 12.76442307692306,46.11778846153846 20.42668269230765,37.91466346153846 28.08894230769224,29.71153846153845 38.3353365384615,25.625 q 10.24639423076919,-4.08653846153845 21.66466346153841,-4.08653846153845 8.41346153846155,0 16.49639423076913,2.40384615384614 8.08293269230785,2.40384615384613 14.81370192307706,6.82091346153847 6.73076923076917,4.41706730769231 11.68870192307689,11.23798076923075 4.9579326923076,6.82091346153847 6.9411057692308,15.11418269230769 Q 110,57.2355769230769 110,57.53605769230767 Z M 63.84615384615393,13.84615384615385 v 5.88942307692306 Q 61.3221153846155,19.6153846153846 60.00000000000009,19.6153846153846 q -1.32211538461538,0 -3.84615384615384,0.12019230769231 v -5.88942307692306 q 0,-1.5625 1.1418269230769,-2.70432692307692 1.14182692307696,-1.14182692307692 2.70432692307692,-1.14182692307692 1.5625,0 2.70432692307692,1.14182692307692 1.14182692307692,1.14182692307692 1.14182692307694,2.70432692307692 z" />
</svg>
