<?xml version="1.0" encoding="UTF-8" standalone="no"?>
<svg
   xmlns:dc="http://purl.org/dc/elements/1.1/"
   xmlns:cc="http://creativecommons.org/ns#"
   xmlns:rdf="http://www.w3.org/1999/02/22-rdf-syntax-ns#"
   xmlns:svg="http://www.w3.org/2000/svg"
   xmlns="http://www.w3.org/2000/svg"
   width="120"
   height="120"
   viewBox="0 0 120 120"
   version="1.1"
   id="svg4">
  <metadata
     id="metadata10">
    <rdf:RDF>
      <cc:Work
         rdf:about="">
        <dc:format>image/svg+xml</dc:format>
        <dc:type
           rdf:resource="http://purl.org/dc/dcmitype/StillImage" />
        <dc:title></dc:title>
      </cc:Work>
    </rdf:RDF>
  </metadata>
  <defs
     id="defs8" />
  <path
     style="stroke-width:1"
     id="path2"
     d="m 104.4661458333333,10.00000000000003 q 2.2786458333334,0 3.90625,1.62760416666666 Q 110,13.25520833333336 110,15.53385416666669 v 88.93229166666661 q 0,2.2786458333333 -1.6276041666667,3.90625 Q 106.7447916666667,110 104.4661458333333,110 H 79.01041666666668 V 71.26302083333334 h 12.95572916666663 l 1.953125,-15.10416666666665 H 79.01041666666668 V 46.5234375 q 0,-3.64583333333331 1.52994791666667,-5.46874999999998 1.52994791666666,-1.82291666666669 5.95703124999999,-1.82291666666669 l 7.9427083333333,-0.0651041666667 V 25.69010416666666 q -4.1015625,-0.58593749999999 -11.58854166666666,-0.58593749999999 -8.85416666666667,0 -14.16015625,5.20833333333333 -5.30598958333333,5.20833333333333 -5.30598958333333,14.7135416666667 V 56.15885416666669 H 50.36458333333333 V 71.26302083333334 H 63.38541666666666 V 110 H 15.53385416666667 q -2.27864583333333,0 -3.90625,-1.6276041666667 Q 10,106.7447916666666 10,104.4661458333333 V 15.53385416666667 q 0,-2.27864583333335 1.62760416666667,-3.90625000000002 1.62760416666667,-1.627604166666662 3.90625,-1.627604166666662 z" />
</svg>
