<svg xmlns="http://www.w3.org/2000/svg" width="120" height="120" viewBox="0 0 120 120"><path d="M104.466 10q2.279 0 3.906 1.628Q110 13.255 110 15.534v88.932q0 2.279-1.628 3.906-1.627 1.628-3.906 1.628H79.01V71.263h12.956l1.953-15.104H79.01v-9.636q0-3.645 1.53-5.468t5.957-1.823l7.943-.065V25.69q-4.101-.586-11.588-.586-8.855 0-14.16 5.209-5.307 5.208-5.307 14.713v11.133h-13.02v15.104h13.02V110H15.534q-2.279 0-3.906-1.628Q10 106.745 10 104.466V15.534q0-2.279 1.628-3.906Q13.255 10 15.534 10z"/></svg>