<svg xmlns="http://www.w3.org/2000/svg" width="120" height="120" viewBox="0 0 120 120"><path d="M56.148 46.04l-6.13 16.227q1.19 0 4.922.072 3.732.072 5.788.072.685 0 2.055-.072-3.137-9.123-6.635-16.299zM30.006 85.885l.072-2.849q.83-.252 2.02-.45 1.19-.199 2.055-.38.865-.18 1.785-.522.919-.343 1.604-1.046.685-.703 1.118-1.82l8.546-22.213L57.302 30.5h4.615q.289.505.397.758l7.392 17.307q1.19 2.813 3.822 9.285 2.632 6.473 4.11 9.898.542 1.226 2.092 5.21 1.55 3.985 2.596 6.077.722 1.622 1.262 2.055.686.54 3.174 1.064 2.488.523 3.029.739.216 1.37.216 2.055 0 .18-.018.487t-.018.45q-2.272 0-6.851-.288-4.58-.288-6.887-.288-2.74 0-7.753.252-5.012.253-6.418.289 0-1.55.144-2.813l4.724-1.01q.036 0 .45-.09.415-.09.56-.126.143-.036.522-.162t.54-.234q.163-.109.398-.289.234-.18.324-.397.09-.216.09-.504 0-.577-1.118-3.48-1.117-2.903-2.596-6.4-1.478-3.498-1.514-3.606l-16.226-.072q-.938 2.091-2.759 7.05-1.82 4.957-1.82 5.859 0 .793.504 1.352.505.559 1.569.883 1.063.325 1.748.487.685.162 2.056.306 1.37.145 1.478.145.036.685.036 2.091 0 .325-.072.974-2.091 0-6.292-.361-4.2-.36-6.292-.36-.289 0-.956.144t-.775.144q-2.885.505-6.779.505zm71.66-61.218H18.334q-.677 0-1.172.494-.494.495-.494 1.172v63.334q0 .677.494 1.172.495.494 1.172.494h83.334q.677 0 1.172-.494.494-.495.494-1.172V26.333q0-.677-.494-1.172-.495-.494-1.172-.494zM110 26.333v63.334q0 3.437-2.448 5.885T101.667 98H18.333q-3.437 0-5.885-2.448T10 89.667V26.333q0-3.437 2.448-5.885T18.333 18h83.334q3.437 0 5.885 2.448T110 26.333z" fill="#080808"/></svg>