<?xml version="1.0" encoding="UTF-8" standalone="no"?>
<svg
   xmlns:dc="http://purl.org/dc/elements/1.1/"
   xmlns:cc="http://creativecommons.org/ns#"
   xmlns:rdf="http://www.w3.org/1999/02/22-rdf-syntax-ns#"
   xmlns:svg="http://www.w3.org/2000/svg"
   xmlns="http://www.w3.org/2000/svg"
   width="120"
   height="120"
   viewBox="0 0 120 120"
   version="1.1"
   id="svg4">
  <metadata
     id="metadata10">
    <rdf:RDF>
      <cc:Work
         rdf:about="">
        <dc:format>image/svg+xml</dc:format>
        <dc:type
           rdf:resource="http://purl.org/dc/dcmitype/StillImage" />
        <dc:title></dc:title>
      </cc:Work>
    </rdf:RDF>
  </metadata>
  <defs
     id="defs8" />
  <path
     style="stroke-width:1"
     id="path2"
     d="m 56.15384615384611,69.53846153846157 v 23.07692307692304 q 0,3.125 -2.28365384615386,5.40865384615388 -2.28365384615384,2.28365384615381 -5.40865384615384,2.28365384615381 H 17.69230769230763 q -3.12499999999999,0 -5.40865384615384,-2.28365384615381 Q 9.999999999999932,95.74038461538461 9.999999999999932,92.61538461538467 V 69.53846153846157 q 0,-3.125 2.283653846153857,-5.40865384615383 2.28365384615384,-2.28365384615383 5.40865384615381,-2.28365384615383 h 30.76923076923081 q 3.125,0 5.40865384615384,2.28365384615383 2.28365384615386,2.28365384615383 2.28365384615386,5.40865384615383 z m 0,-46.15384615384619 V 46.4615384615385 q 0,3.125 -2.28365384615386,5.40865384615387 -2.28365384615384,2.28365384615381 -5.40865384615384,2.28365384615381 H 17.69230769230763 q -3.12499999999999,0 -5.40865384615384,-2.28365384615381 Q 9.999999999999932,49.58653846153853 9.999999999999932,46.46153846153853 V 23.38461538461541 q 0,-3.12499999999999 2.283653846153857,-5.40865384615383 2.28365384615384,-2.28365384615386 5.40865384615381,-2.28365384615386 h 30.76923076923081 q 3.125,0 5.40865384615384,2.28365384615386 2.28365384615386,2.28365384615384 2.28365384615386,5.40865384615381 z M 110,69.53846153846157 v 23.07692307692304 q 0,3.125 -2.2836538461538,5.40865384615388 -2.2836538461539,2.28365384615381 -5.4086538461538,2.28365384615381 H 71.5384615384615 q -3.125,0 -5.40865384615384,-2.28365384615381 -2.28365384615388,-2.28365384615388 -2.28365384615388,-5.40865384615388 V 69.53846153846157 q 0,-3.125 2.28365384615388,-5.40865384615383 2.28365384615377,-2.28365384615383 5.40865384615377,-2.28365384615383 h 30.76923076923087 q 3.125,0 5.4086538461539,2.28365384615383 Q 110,66.41346153846157 110,69.53846153846157 Z m 0,-46.15384615384619 V 46.4615384615385 q 0,3.125 -2.2836538461538,5.40865384615387 -2.2836538461539,2.28365384615381 -5.4086538461539,2.28365384615381 H 71.53846153846143 q -3.12499999999996,0 -5.40865384615381,-2.28365384615381 -2.28365384615384,-2.28365384615387 -2.28365384615384,-5.40865384615384 V 23.3846153846154 q 0,-3.125 2.28365384615384,-5.40865384615384 2.28365384615385,-2.28365384615385 5.40865384615381,-2.28365384615385 h 30.76923076923087 q 3.125,0 5.4086538461539,2.28365384615385 Q 110,20.25961538461542 110,23.38461538461539 Z" />
</svg>
