<?xml version="1.0" encoding="UTF-8" standalone="no"?>
<svg
   xmlns:dc="http://purl.org/dc/elements/1.1/"
   xmlns:cc="http://creativecommons.org/ns#"
   xmlns:rdf="http://www.w3.org/1999/02/22-rdf-syntax-ns#"
   xmlns:svg="http://www.w3.org/2000/svg"
   xmlns="http://www.w3.org/2000/svg"
   xmlns:xlink="http://www.w3.org/1999/xlink"
   xmlns:sodipodi="http://sodipodi.sourceforge.net/DTD/sodipodi-0.dtd"
   xmlns:inkscape="http://www.inkscape.org/namespaces/inkscape"
   id="svg4"
   version="1.1"
   viewBox="0 0 192 192"
   height="192"
   width="192"
   sodipodi:docname="gallery.svg"
   inkscape:version="0.92.3 (2405546, 2018-03-11)">
  <sodipodi:namedview
     pagecolor="#ffffff"
     bordercolor="#666666"
     borderopacity="1"
     objecttolerance="10"
     gridtolerance="10"
     guidetolerance="10"
     inkscape:pageopacity="0"
     inkscape:pageshadow="2"
     inkscape:window-width="2495"
     inkscape:window-height="1340"
     id="namedview6821"
     showgrid="false"
     inkscape:zoom="4.176349427484842"
     inkscape:cx="95.99999999999997"
     inkscape:cy="96"
     inkscape:window-x="65"
     inkscape:window-y="32"
     inkscape:window-maximized="1"
     inkscape:current-layer="svg4" />
  <metadata
     id="metadata10">
    <rdf:RDF>
      <cc:Work
         rdf:about="">
        <dc:format>image/svg+xml</dc:format>
        <dc:type
           rdf:resource="http://purl.org/dc/dcmitype/StillImage" />
        <dc:title></dc:title>
      </cc:Work>
    </rdf:RDF>
  </metadata>
  <defs
     id="defs8" />
  <g
     id="g6852"
     transform="matrix(2.438295230174091,0,0,2.438295230174091,-172.4855643849295,-165.6037199272861)"
     style="stroke-width:0.4101226032">
    <path
       inkscape:tile-y0="85.248"
       inkscape:tile-x0="82.55999999999997"
       inkscape:tile-h="21.50399999999999"
       inkscape:tile-w="26.88000000000002"
       inkscape:tile-cy="96"
       inkscape:tile-cx="95.99999999999999"
       inkscape:connector-curvature="0"
       d="m 91.51999999999998,91.52000000000008 q 0,1.11999999999996 -0.78400000000001,1.90399999999998 -0.78400000000006,0.78399999999998 -1.90400000000001,0.78399999999998 -1.11999999999999,0 -1.90400000000004,-0.78399999999998 -0.78399999999995,-0.78400000000002 -0.78399999999995,-1.90399999999998 0,-1.12000000000002 0.78399999999995,-1.90400000000002 0.78400000000005,-0.78400000000002 1.90400000000004,-0.78400000000002 1.11999999999995,0 1.90400000000001,0.78400000000002 0.78400000000001,0.78399999999998 0.78400000000001,1.90400000000002 z M 105.856,96.8960000000001 v 6.27200000000001 H 86.14399999999997 V 100.48 l 4.48,-4.47999999999995 L 92.864,98.24000000000006 100.032,91.07200000000007 Z M 107.2,87.04000000000006 H 84.79999999999998 q -0.18200000000002,0 -0.315,0.13299999999998 -0.13300000000008,0.13299999999998 -0.13300000000008,0.31500000000001 v 17.02400000000004 q 0,0.182 0.13300000000008,0.3149999999999 0.13299999999998,0.1330000000001 0.315,0.1330000000001 H 107.2 q 0.182,0 0.315,-0.1330000000001 0.133,-0.1329999999999 0.133,-0.3149999999999 V 87.48800000000005 q 0,-0.18200000000003 -0.133,-0.31500000000001 -0.133,-0.13299999999998 -0.315,-0.13299999999998 z m 2.24,0.44799999999999 v 17.02400000000004 q 0,0.924 -0.658,1.582 Q 108.124,106.752 107.2,106.752 H 84.79999999999998 q -0.92400000000008,0 -1.58200000000002,-0.6579999999999 -0.65799999999999,-0.658 -0.65799999999999,-1.582 V 87.48800000000005 q 0,-0.92400000000002 0.65799999999999,-1.58200000000004 Q 83.8759999999999,85.248 84.79999999999998,85.248 H 107.2 q 0.924,0 1.582,0.65800000000002 0.658,0.65800000000004 0.658,1.58200000000004 z"
       id="path2350"
       style="stroke-width:0.4101226032" />
    <use
       id="use6839"
       xlink:href="#path2350"
       inkscape:tiled-clone-of="#path2350"
       y="0"
       x="0"
       width="100%"
       height="100%"
       style="stroke-width:0.4101226032" />
    <use
       id="use6841"
       transform="translate(0,22.57919999999999)"
       xlink:href="#path2350"
       inkscape:tiled-clone-of="#path2350"
       y="0"
       x="0"
       width="100%"
       height="100%"
       style="stroke-width:0.4101226032" />
    <use
       id="use6843"
       transform="translate(28.22400000000002)"
       xlink:href="#path2350"
       inkscape:tiled-clone-of="#path2350"
       y="0"
       x="0"
       width="100%"
       height="100%"
       style="stroke-width:0.4101226032" />
    <use
       id="use6845"
       transform="translate(28.22400000000002,22.57919999999999)"
       xlink:href="#path2350"
       inkscape:tiled-clone-of="#path2350"
       y="0"
       x="0"
       width="100%"
       height="100%"
       style="stroke-width:0.4101226032" />
  </g>
</svg>
