<svg xmlns="http://www.w3.org/2000/svg" width="120" height="120" viewBox="0 0 120 120"><path d="M76.667 43.333q0-6.9-4.883-11.784Q66.9 26.667 60 26.667q-6.901 0-11.784 4.882-4.883 4.883-4.883 11.784 0 6.901 4.883 11.784Q53.1 60 60 60q6.901 0 11.784-4.883 4.883-4.883 4.883-11.784zm16.666 0q0 7.097-2.148 11.654l-23.698 50.39q-1.042 2.149-3.092 3.386Q62.344 110 60 110q-2.344 0-4.395-1.237-2.05-1.237-3.027-3.385L28.815 54.987q-2.148-4.557-2.148-11.654 0-13.802 9.765-23.567Q46.198 10 60 10q13.802 0 23.568 9.766 9.765 9.765 9.765 23.567z"/></svg>