<svg xmlns="http://www.w3.org/2000/svg" width="120" height="120" viewBox="0 0 120 120"><path d="M103.295 62.064q0-1.834-2.776-1.834H43.525q-2.095 0-4.478 1.127-2.384 1.126-3.746 2.75l-15.4 19.015q-.943 1.257-.943 2.095 0 1.834 2.776 1.834h56.993q2.095 0 4.505-1.153 2.41-1.152 3.72-2.776l15.4-19.015q.943-1.153.943-2.043zm-59.77-8.539h40.23v-8.38q0-2.096-1.466-3.563-1.467-1.467-3.562-1.467H48.554q-2.095 0-3.562-1.466-1.467-1.467-1.467-3.563v-3.352q0-2.095-1.466-3.562-1.467-1.467-3.562-1.467H21.734q-2.095 0-3.562 1.467-1.467 1.467-1.467 3.562v44.683l13.41-16.5q2.305-2.777 6.077-4.584 3.771-1.808 7.333-1.808zM110 62.064q0 3.248-2.41 6.286L92.137 87.365q-2.252 2.776-6.076 4.584-3.824 1.807-7.334 1.807H21.734q-4.82 0-8.277-3.457Q10 86.84 10 82.022V31.734q0-4.82 3.457-8.277Q16.915 20 21.734 20h16.763q4.819 0 8.276 3.457 3.457 3.458 3.457 8.277v1.676h28.497q4.82 0 8.277 3.457 3.457 3.458 3.457 8.277v8.381h10.058q2.828 0 5.186 1.284 2.357 1.283 3.51 3.693.785 1.676.785 3.562z"/></svg>