<?xml version="1.0" encoding="UTF-8" standalone="no"?>
<svg
   xmlns:dc="http://purl.org/dc/elements/1.1/"
   xmlns:cc="http://creativecommons.org/ns#"
   xmlns:rdf="http://www.w3.org/1999/02/22-rdf-syntax-ns#"
   xmlns:svg="http://www.w3.org/2000/svg"
   xmlns="http://www.w3.org/2000/svg"
   width="120"
   height="120"
   viewBox="0 0 120 120"
   version="1.1"
   id="svg4">
  <metadata
     id="metadata10">
    <rdf:RDF>
      <cc:Work
         rdf:about="">
        <dc:format>image/svg+xml</dc:format>
        <dc:type
           rdf:resource="http://purl.org/dc/dcmitype/StillImage" />
        <dc:title></dc:title>
      </cc:Work>
    </rdf:RDF>
  </metadata>
  <defs
     id="defs8" />
  <path
     style="stroke-width:1"
     id="path2"
     d="m 103.2949188056574,62.06390780513356 q 0,-1.83342063907805 -2.7763226820325,-1.83342063907805 H 43.52540597171296 q -2.09533787323208,0 -4.47878470403357,1.12624410686224 -2.38344683080146,1.12624410686222 -3.74541644840231,2.75013095861706 L 19.90047145102146,83.12205343111571 q -0.94290204295441,1.25720272393924 -0.94290204295441,2.09533787323207 0,1.83342063907807 2.77632268203247,1.83342063907807 h 56.99319015191199 q 2.09533787323204,0 4.50497642744894,-1.15243583027764 2.40963855421688,-1.15243583027765 3.7192247249869,-2.7763226820325 L 102.352016762703,64.10686223153484 q 0.9429020429544,-1.15243583027765 0.9429020429544,-2.04295442640127 z M 43.52540597171296,53.5254059717129 h 40.23048716605549 v -8.3813514929282 q 0,-2.09533787323208 -1.46673651126247,-3.56207438449452 -1.46673651126244,-1.46673651126244 -3.56207438449448,-1.46673651126244 H 48.55421686746989 q -2.09533787323205,0 -3.56207438449452,-1.46673651126242 -1.4667365112624,-1.46673651126244 -1.4667365112624,-3.56207438449451 v -3.35254059717129 q 0,-2.09533787323207 -1.46673651126246,-3.56207438449452 -1.46673651126243,-1.46673651126244 -3.5620743844945,-1.46673651126244 H 21.73389209009952 q -2.09533787323206,0 -3.56207438449449,1.46673651126244 -1.46673651126244,1.46673651126244 -1.46673651126244,3.56207438449451 V 76.41697223677316 L 30.11524358302775,59.91618648507071 q 2.30487166055525,-2.77632268203249 6.076479832373,-4.58355159769512 3.77160817181769,-1.80722891566269 7.33368255631221,-1.80722891566269 z M 110,62.06390780513356 q 0,3.24777370350967 -2.4096385542169,6.28601361969617 L 92.13724463069665,87.36511262441065 q -2.25248821372446,2.77632268203246 -6.07647983237295,4.58355159769512 -3.82399161864851,1.80722891566263 -7.3336825563122,1.80722891566263 h -56.993190151912 q -4.81927710843372,1e-14 -8.27658459926662,-3.45730749083287 Q 10,86.84127815610263 10,82.02200104766889 V 31.73389209009951 Q 10,26.91461498166578 13.45730749083289,23.45730749083289 16.9146149816658,20 21.73389209009952,20 h 16.76270298585649 q 4.81927710843375,-1e-14 8.27658459926663,3.45730749083289 3.45730749083289,3.45730749083289 3.45730749083289,8.27658459926662 v 1.67627029858565 h 28.49659507595597 q 4.81927710843371,0 8.27658459926664,3.4573074908329 3.45730749083289,3.45730749083289 3.45730749083289,8.27658459926664 v 8.3813514929282 h 10.05762179151387 q 2.8287061288633,0 5.1859612362494,1.28339444735467 2.357255107386,1.28339444735462 3.5096909376637,3.69303300157146 Q 110,60.17810371922472 110,62.06390780513356 Z" />
</svg>
