<svg xmlns="http://www.w3.org/2000/svg" width="120" height="120" viewBox="0 0 120 120"><path d="M43.333 41.164q0 4.167-2.916 7.083-2.917 2.917-7.084 2.917-4.166 0-7.083-2.917-2.917-2.916-2.917-7.083t2.917-7.083q2.917-2.917 7.083-2.917 4.167 0 7.084 2.917 2.916 2.916 2.916 7.083zm53.334 20v23.333H23.333v-10L40 57.831l8.333 8.333L75 39.497zm5-36.667H18.333q-.677 0-1.172.495-.494.495-.494 1.172v63.333q0 .677.494 1.172.495.495 1.172.495h83.334q.677 0 1.172-.495.494-.495.494-1.172V26.164q0-.677-.494-1.172-.495-.495-1.172-.495zM110 26.164v63.333q0 3.438-2.448 5.886t-5.885 2.448H18.333q-3.437 0-5.885-2.448T10 89.497V26.164q0-3.437 2.448-5.885t5.885-2.448h83.334q3.437 0 5.885 2.448T110 26.164z"/></svg>