<?xml version="1.0" encoding="UTF-8" standalone="no"?>
<svg
   xmlns:dc="http://purl.org/dc/elements/1.1/"
   xmlns:cc="http://creativecommons.org/ns#"
   xmlns:rdf="http://www.w3.org/1999/02/22-rdf-syntax-ns#"
   xmlns:svg="http://www.w3.org/2000/svg"
   xmlns="http://www.w3.org/2000/svg"
   width="120"
   height="120"
   viewBox="0 0 120 120"
   version="1.1"
   id="svg4">
  <metadata
     id="metadata10">
    <rdf:RDF>
      <cc:Work
         rdf:about="">
        <dc:format>image/svg+xml</dc:format>
        <dc:type
           rdf:resource="http://purl.org/dc/dcmitype/StillImage" />
        <dc:title></dc:title>
      </cc:Work>
    </rdf:RDF>
  </metadata>
  <defs
     id="defs8" />
  <path
     style="stroke-width:1"
     id="path2"
     d="m 43.33333333333325,41.1640211598894 q 0,4.16666666666665 -2.91666666666665,7.08333333333335 -2.91666666666665,2.91666666666665 -7.08333333333333,2.91666666666665 -4.16666666666666,0 -7.08333333333333,-2.91666666666665 -2.91666666666666,-2.91666666666668 -2.91666666666666,-7.08333333333335 0,-4.16666666666668 2.91666666666666,-7.08333333333334 2.91666666666667,-2.91666666666666 7.08333333333333,-2.91666666666666 4.16666666666666,0 7.08333333333333,2.91666666666666 2.91666666666665,2.91666666666666 2.91666666666665,7.08333333333334 z M 96.6666666666665,61.16402115988937 V 84.49735449322264 H 23.33333333333325 V 74.49735449322268 L 39.9999999999999,57.83068782655603 48.33333333333321,66.16402115988937 74.99999999999981,39.49735449322272 Z m 5.0000000000001,-36.66666666666667 H 18.33333333333326 q -0.67708333333335,0 -1.171875,0.49479166666668 -0.49479166666668,0.49479166666667 -0.49479166666668,1.171875 v 63.33333333333329 q 0,0.67708333333337 0.49479166666668,1.171875 0.49479166666665,0.49479166666667 1.171875,0.49479166666667 h 83.33333333333334 q 0.6770833333333,0 1.171875,-0.49479166666667 0.4947916666666,-0.49479166666663 0.4947916666666,-1.171875 V 26.16402115988939 q 0,-0.67708333333333 -0.4947916666666,-1.171875 -0.4947916666667,-0.49479166666668 -1.171875,-0.49479166666668 z M 110,26.16402115988939 v 63.33333333333329 q 0,3.4375 -2.4479166666667,5.8854166666667 -2.4479166666668,2.44791666666664 -5.8854166666667,2.44791666666664 H 18.33333333333326 q -3.43750000000002,0 -5.88541666666668,-2.44791666666664 Q 9.9999999999999,92.93485449322268 9.9999999999999,89.49735449322268 V 26.16402115988939 q 0,-3.43749999999998 2.44791666666668,-5.88541666666665 2.44791666666665,-2.44791666666668 5.88541666666668,-2.44791666666668 h 83.33333333333334 q 3.4374999999999,0 5.8854166666667,2.44791666666668 Q 110,22.72652115988941 110,26.16402115988939 Z" />
</svg>
