<?xml version="1.0" encoding="UTF-8" standalone="no"?>
<svg
   xmlns:dc="http://purl.org/dc/elements/1.1/"
   xmlns:cc="http://creativecommons.org/ns#"
   xmlns:rdf="http://www.w3.org/1999/02/22-rdf-syntax-ns#"
   xmlns:svg="http://www.w3.org/2000/svg"
   xmlns="http://www.w3.org/2000/svg"
   id="svg4"
   version="1.1"
   viewBox="0 0 192 192"
   height="192"
   width="192">
  <metadata
     id="metadata10">
    <rdf:RDF>
      <cc:Work
         rdf:about="">
        <dc:format>image/svg+xml</dc:format>
        <dc:type
           rdf:resource="http://purl.org/dc/dcmitype/StillImage" />
        <dc:title></dc:title>
      </cc:Work>
    </rdf:RDF>
  </metadata>
  <defs
     id="defs8" />
  <path
     style="stroke-width:1"
     id="path2350"
     d="m 73.59999999999998,73.60000000000033 q 0,5.59999999999991 -3.91999999999999,9.5199999999999 -3.9200000000003,3.9199999999999 -9.5200000000001,3.9199999999999 -5.59999999999991,0 -9.52000000000021,-3.9199999999999 -3.9199999999997,-3.91999999999999 -3.9199999999997,-9.5199999999999 0,-5.60000000000012 3.9199999999997,-9.52000000000011 3.9200000000003,-3.92000000000009 9.52000000000021,-3.92000000000009 5.5999999999998,0 9.5200000000001,3.92000000000009 3.91999999999999,3.91999999999996 3.91999999999999,9.52000000000011 z m 71.6799999999999,26.88000000000007 v 31.3599999999998 H 46.71999999999997 V 118.4 L 69.11999999999996,96.00000000000018 80.32000000000003,107.2000000000003 116.16,71.36000000000028 Z m 6.7200000000002,-49.28000000000017 H 40 q -0.91000000000012,0 -1.57500000000001,0.66500000000001 -0.6650000000003,0.66499999999979 -0.6650000000003,1.575 v 85.12000000000004 q 0,0.9100000000001 0.6650000000003,1.5749999999997 Q 39.0899999999999,140.8000000000003 40,140.8000000000003 H 152.0000000000001 q 0.91,0 1.575,-0.6650000000003 0.665,-0.6649999999996 0.665,-1.5749999999997 V 53.44000000000026 q 0,-0.91000000000021 -0.665,-1.57500000000001 -0.6650000000001,-0.665 -1.575,-0.66500000000002 z m 11.2,2.24 v 85.12000000000006 q 0,4.62 -3.2900000000002,7.9100000000001 Q 156.62,149.76 152,149.76 H 40 q -4.62000000000031,0 -7.91000000000011,-3.2899999999996 -3.28999999999991,-3.2900000000001 -3.28999999999991,-7.9100000000001 V 53.44000000000024 q 0,-4.62000000000002 3.28999999999991,-7.91000000000021 3.28999999999979,-3.29 7.9100000000001,-3.29 H 152.0000000000001 q 4.6199999999997,0 7.91,3.29 3.29,3.29000000000022 3.29,7.9100000000002 z" />
</svg>
