<?xml version="1.0" encoding="UTF-8" standalone="no"?>
<svg
   xmlns:dc="http://purl.org/dc/elements/1.1/"
   xmlns:cc="http://creativecommons.org/ns#"
   xmlns:rdf="http://www.w3.org/1999/02/22-rdf-syntax-ns#"
   xmlns:svg="http://www.w3.org/2000/svg"
   xmlns="http://www.w3.org/2000/svg"
   width="120"
   height="120"
   viewBox="0 0 120 120"
   version="1.1"
   id="svg4">
  <metadata
     id="metadata10">
    <rdf:RDF>
      <cc:Work
         rdf:about="">
        <dc:format>image/svg+xml</dc:format>
        <dc:type
           rdf:resource="http://purl.org/dc/dcmitype/StillImage" />
        <dc:title></dc:title>
      </cc:Work>
    </rdf:RDF>
  </metadata>
  <defs
     id="defs8" />
  <path
     style="stroke-width:1"
     id="path2"
     d="m 39.57095709570956,31.12211221122109 q 0,-3.49834983498351 -2.47524752475247,-5.97359735973598 -2.47524752475249,-2.47524752475248 -5.97359735973599,-2.47524752475248 -3.4983498349835,0 -5.97359735973598,2.47524752475248 -2.47524752475248,2.47524752475247 -2.47524752475248,5.97359735973598 0,3.49834983498352 2.47524752475248,5.973597359736 2.47524752475248,2.47524752475248 5.97359735973598,2.47524752475248 3.4983498349835,0 5.97359735973599,-2.47524752475248 2.47524752475247,-2.47524752475247 2.47524752475247,-5.973597359736 z M 110,69.1419141914191 q 0,3.49834983498349 -2.4422442244224,5.94059405940594 L 75.14851485148516,107.5577557755776 Q 72.5742574257426,110 69.1419141914191,110 q -3.49834983498347,0 -5.94059405940593,-2.4422442244224 L 16.00660066006599,60.29702970297028 Q 13.49834983498348,57.85478547854781 11.74917491749175,53.63036303630363 10,49.4059405940594 10,45.9075907590759 V 18.44884488448843 q 0,-3.4323432343234 2.50825082508249,-5.94059405940593 2.50825082508251,-2.50825082508249 5.94059405940593,-2.50825082508249 H 45.9075907590759 q 3.49834983498353,0 7.72277227722772,1.74917491749176 4.22442244224419,1.74917491749172 6.73267326732671,4.25742574257425 l 47.19471947194718,47.1287128712871 Q 110,65.70957095709566 110,69.1419141914191 Z" />
</svg>
