<svg xmlns="http://www.w3.org/2000/svg" width="120" height="120" viewBox="0 0 120 120"><path d="M39.571 31.122q0-3.498-2.475-5.973-2.476-2.476-5.974-2.476T25.15 25.15q-2.476 2.475-2.476 5.973 0 3.498 2.476 5.974 2.475 2.475 5.973 2.475 3.498 0 5.974-2.475 2.475-2.476 2.475-5.974zM110 69.142q0 3.498-2.442 5.94l-32.41 32.476Q72.575 110 69.143 110q-3.498 0-5.94-2.442L16.006 60.297q-2.509-2.442-4.258-6.667Q10 49.406 10 45.908v-27.46q0-3.431 2.508-5.94Q15.017 10 18.448 10h27.46q3.498 0 7.722 1.75 4.225 1.748 6.733 4.257l47.195 47.128Q110 65.71 110 69.142z"/></svg>