<?xml version="1.0" encoding="UTF-8" standalone="no"?>
<svg
   xmlns:dc="http://purl.org/dc/elements/1.1/"
   xmlns:cc="http://creativecommons.org/ns#"
   xmlns:rdf="http://www.w3.org/1999/02/22-rdf-syntax-ns#"
   xmlns:svg="http://www.w3.org/2000/svg"
   xmlns="http://www.w3.org/2000/svg"
   width="120"
   height="120"
   viewBox="0 0 120 120"
   version="1.1"
   id="svg4">
  <metadata
     id="metadata10">
    <rdf:RDF>
      <cc:Work
         rdf:about="">
        <dc:format>image/svg+xml</dc:format>
        <dc:type
           rdf:resource="http://purl.org/dc/dcmitype/StillImage" />
        <dc:title></dc:title>
      </cc:Work>
    </rdf:RDF>
  </metadata>
  <defs
     id="defs8" />
  <path
     style="stroke-width:1"
     id="path2"
     d="M 99.06250000000002,31.20535714285715 Q 100.625,32.76785714285716 101.7410714285715,35.44642857142858 q 1.1160714285714,2.67857142857144 1.1160714285714,4.91071428571431 v 64.2857142857143 q 0,2.2321428571429 -1.5625,3.7946428571428 Q 99.73214285714286,110 97.5,110 H 22.49999999999999 q -2.23214285714286,0 -3.79464285714286,-1.5625 -1.56250000000001,-1.5624999999999 -1.56250000000001,-3.7946428571428 V 15.35714285714286 Q 17.14285714285712,13.125 18.70535714285713,11.5625 q 1.5625,-1.562500000000002 3.79464285714285,-1.562500000000002 H 72.5 q 2.23214285714286,0 4.91071428571426,1.116071428571432 2.67857142857143,1.11607142857143 4.24107142857146,2.67857142857143 z M 74.2857142857143,17.58928571428571 V 38.57142857142859 H 95.26785714285713 Q 94.70982142857144,36.953125 94.04017857142858,36.28348214285714 L 76.57366071428569,18.8169642857143 Q 75.90401785714286,18.14732142857144 74.2857142857143,17.58928571428571 Z M 95.71428571428572,102.8571428571429 V 45.71428571428573 H 72.5 q -2.23214285714285,0 -3.79464285714285,-1.5625 -1.5625,-1.56249999999999 -1.5625,-3.79464285714285 V 17.14285714285716 H 24.28571428571427 V 102.8571428571429 Z M 43.92857142857144,52.85714285714288 q 0.44642857142856,-0.61383928571429 1.171875,-0.69754464285715 0.72544642857143,-0.0837053571429 1.3392857142857,0.36272321428572 l 2.84598214285716,2.12053571428571 q 0.61383928571427,0.44642857142857 0.69754464285714,1.171875 0.0837053571429,0.72544642857144 -0.36272321428573,1.33928571428572 l -10.15625,13.56026785714287 10.15625,13.56026785714286 q 0.44642857142857,0.61383928571426 0.36272321428573,1.33928571428571 -0.0837053571429,0.72544642857143 -0.69754464285714,1.17187499999997 l -2.84598214285716,2.12053571428572 q -0.61383928571427,0.44642857142857 -1.3392857142857,0.36272321428574 Q 44.375,89.18526785714284 43.92857142857144,88.57142857142861 L 31.31696428571425,71.77455357142858 q -0.78125,-1.06026785714283 0,-2.12053571428571 z m 44.75446428571426,16.79687499999999 q 0.78125000000003,1.06026785714288 0,2.12053571428571 L 76.07142857142855,88.57142857142861 q -0.44642857142856,0.61383928571426 -1.171875,0.69754464285714 -0.72544642857143,0.0837053571429 -1.33928571428569,-0.36272321428574 l -2.84598214285714,-2.12053571428568 q -0.61383928571428,-0.44642857142858 -0.69754464285717,-1.171875 -0.0837053571429,-0.72544642857143 0.36272321428575,-1.33928571428571 l 10.15625,-13.56026785714288 -10.15625,-13.56026785714287 q -0.44642857142858,-0.61383928571427 -0.36272321428575,-1.33928571428572 0.0837053571429,-0.72544642857144 0.69754464285717,-1.171875 l 2.84598214285714,-2.12053571428572 q 0.61383928571426,-0.44642857142857 1.33928571428569,-0.36272321428572 0.72544642857144,0.0837053571429 1.171875,0.69754464285715 z M 54.08482142857144,95.37946428571433 Q 53.35937500000001,95.26785714285718 52.94084821428573,94.6540178571429 52.52232142857144,94.04017857142861 52.63392857142858,93.31473214285718 l 7.70089285714283,-46.37276785714286 q 0.11160714285719,-0.72544642857144 0.72544642857146,-1.14397321428572 0.61383928571427,-0.41852678571428 1.33928571428573,-0.30691964285715 l 3.51562499999996,0.55803571428572 q 0.72544642857143,0.11160714285715 1.14397321428571,0.72544642857143 0.41852678571429,0.6138392857143 0.30691964285718,1.33928571428572 l -7.70089285714288,46.37276785714286 q -0.11160714285713,0.7254464285714 -0.72544642857145,1.14397321428569 -0.61383928571426,0.41852678571428 -1.33928571428568,0.30691964285714 z" />
</svg>
