<?xml version="1.0" encoding="UTF-8" standalone="no"?>
<svg
   xmlns:dc="http://purl.org/dc/elements/1.1/"
   xmlns:cc="http://creativecommons.org/ns#"
   xmlns:rdf="http://www.w3.org/1999/02/22-rdf-syntax-ns#"
   xmlns:svg="http://www.w3.org/2000/svg"
   xmlns="http://www.w3.org/2000/svg"
   width="120"
   height="120"
   viewBox="0 0 120 120"
   version="1.1"
   id="svg4">
  <metadata
     id="metadata10">
    <rdf:RDF>
      <cc:Work
         rdf:about="">
        <dc:format>image/svg+xml</dc:format>
        <dc:type
           rdf:resource="http://purl.org/dc/dcmitype/StillImage" />
        <dc:title></dc:title>
      </cc:Work>
    </rdf:RDF>
  </metadata>
  <defs
     id="defs8" />
  <path
     style="stroke-width:1"
     id="path918"
     d="m 98.23529411764704,81.52941176470605 q 0,-2.45098039215702 -1.71568627450981,-4.1666666666668 L 83.7745098039216,64.6176470588237 q -1.71568627450988,-1.71568627450996 -4.1666666666667,-1.71568627450996 -2.57352941176465,0 -4.41176470588232,1.96078431372563 0.18382352941168,0.18382352941178 1.16421568627443,1.13357843137258 0.98039215686281,0.94975490196074 1.31740196078444,1.3174019607843 0.33700980392149,0.36764705882352 0.91911764705868,1.1642156862745 0.58210784313729,0.79656862745097 0.79656862745097,1.56249999999999 0.2144607843138,0.76593137254903 0.2144607843138,1.68504901960783 0,2.45098039215696 -1.71568627450988,4.16666666666663 -1.71568627450976,1.71568627450975 -4.1666666666666,1.71568627450975 -0.91911764705884,0 -1.68504901960783,-0.21446078431356 -0.76593137254903,-0.21446078431389 -1.5625,-0.79656862745097 -0.79656862745095,-0.58210784313728 -1.16421568627453,-0.91911764705898 -0.36764705882348,-0.33700980392156 -1.31740196078431,-1.31740196078434 -0.94975490196079,-0.98039215686259 -1.13357843137247,-1.1642156862745 -2.02205882352942,1.89950980392156 -2.02205882352942,4.47303921568623 0,2.45098039215699 1.71568627450975,4.16666666666679 l 12.62254901960782,12.68382352941183 q 1.65441176470591,1.65441176470571 4.16666666666669,1.65441176470571 2.45098039215686,0 4.16666666666666,-1.59313725490182 l 9.00735294117646,-8.94607843137258 q 1.71568627450985,-1.71568627450981 1.71568627450981,-4.10539215686271 z M 55.15931372549025,38.33088235294133 q 0,-2.450980392157 -1.71568627450986,-4.16666666666664 L 40.82107843137252,21.48039215686285 q -1.71568627450977,-1.71568627450977 -4.16666666666667,-1.71568627450977 -2.38970588235296,0 -4.16666666666671,1.65441176470586 l -9.00735294117641,8.94607843137249 q -1.71568627450982,1.71568627450995 -1.71568627450982,4.1053921568627 0,2.45098039215699 1.71568627450982,4.16666666666677 l 12.74509803921573,12.74509803921557 q 1.65441176470579,1.65441176470604 4.16666666666665,1.65441176470604 2.57352941176471,0 4.41176470588238,-1.89950980392156 -0.18382352941186,-0.18382352941174 -1.16421568627458,-1.13357843137267 -0.98039215686271,-0.94975490196066 -1.31740196078422,-1.31740196078416 -0.33700980392162,-0.3676470588235 -0.91911764705891,-1.16421568627466 -0.58210784313723,-0.79656862745093 -0.79656862745096,-1.5625 -0.21446078431365,-0.76593137254903 -0.21446078431365,-1.68504901960766 0,-2.450980392157 1.71568627450974,-4.16666666666677 1.7156862745098,-1.7156862745098 4.16666666666668,-1.7156862745098 0.91911764705883,0 1.68504901960781,0.21446078431373 0.76593137254909,0.21446078431373 1.56250000000007,0.79656862745103 0.79656862745096,0.58210784313727 1.16421568627447,0.91911764705878 0.36764705882361,0.33700980392161 1.31740196078433,1.31740196078433 0.94975490196077,0.98039215686272 1.13357843137263,1.1642156862745 2.0220588235294,-1.89950980392153 2.02205882352935,-4.47303921568627 z M 110,81.52941176470605 q 0,7.35294117647051 -5.2083333333333,12.43872549019595 l -9.00735294117651,8.9460784313726 Q 90.69852941176465,108 83.34558823529407,108 75.93137254901968,108 70.84558823529413,102.7916666666668 L 58.22303921568628,90.10784313725497 q -5.08578431372545,-5.08578431372544 -5.08578431372545,-12.43872549019612 0,-7.53676470588229 5.39215686274511,-12.80637254901947 L 53.13725490196083,59.4705882352942 q -5.26960784313738,5.39215686274518 -12.74509803921569,5.39215686274518 -7.35294117647069,0 -12.49999999999997,-5.14705882352951 L 15.14705882352946,46.97058823529417 Q 10,41.82352941176483 10,34.47058823529413 10,27.11764705882359 15.2083333333333,22.03186274509815 l 9.00735294117655,-8.9460784313726 q 5.08578431372543,-5.085784313725584 12.43872549019601,-5.085784313725584 7.41421568627451,0 12.49999999999998,5.208333333333424 l 12.62254901960788,12.68382352941182 q 5.08578431372559,5.08578431372561 5.08578431372559,12.43872549019625 0,7.53676470588231 -5.39215686274515,12.80637254901964 l 5.39215686274515,5.39215686274503 q 5.26960784313712,-5.39215686274503 12.74509803921565,-5.39215686274503 7.35294117647057,0 12.5,5.14705882352934 L 104.8529411764706,69.02941176470598 Q 110.0000000000001,74.17647058823547 110,81.52941176470605 Z" />
</svg>
