<?xml version="1.0" encoding="UTF-8" standalone="no"?>
<svg
   xmlns:dc="http://purl.org/dc/elements/1.1/"
   xmlns:cc="http://creativecommons.org/ns#"
   xmlns:rdf="http://www.w3.org/1999/02/22-rdf-syntax-ns#"
   xmlns:svg="http://www.w3.org/2000/svg"
   xmlns="http://www.w3.org/2000/svg"
   id="svg4"
   version="1.1"
   viewBox="0 0 192 192"
   height="192"
   width="192">
  <metadata
     id="metadata10">
    <rdf:RDF>
      <cc:Work
         rdf:about="">
        <dc:format>image/svg+xml</dc:format>
        <dc:type
           rdf:resource="http://purl.org/dc/dcmitype/StillImage" />
        <dc:title></dc:title>
      </cc:Work>
    </rdf:RDF>
  </metadata>
  <defs
     id="defs8" />
  <path
     style="stroke-width:1"
     id="path2"
     d="m 158.7200000000001,131.8400000000003 v 8.9599999999998 q 0,1.8199999999996 -1.3300000000002,3.1500000000001 -1.3299999999998,1.3299999999997 -3.1500000000001,1.3299999999997 H 37.75999999999984 q -1.81999999999983,0 -3.15000000000021,-1.3299999999997 -1.3299999999997,-1.3300000000005 -1.3299999999997,-3.1500000000001 v -8.9599999999998 q 0,-1.8200000000004 1.3299999999997,-3.1500000000001 1.33000000000038,-1.3300000000006 3.15000000000021,-1.3300000000006 H 154.2399999999998 q 1.8200000000003,0 3.1500000000001,1.3300000000006 1.3300000000002,1.3299999999997 1.3300000000002,3.1500000000001 z m -26.88,-26.88 V 113.92 q 0,1.8199999999997 -1.3300000000003,3.1500000000002 Q 129.18,118.3999999999999 127.3599999999996,118.3999999999999 H 37.75999999999984 q -1.81999999999983,0 -3.15000000000021,-1.3299999999997 Q 33.27999999999993,115.7399999999997 33.27999999999993,113.92 v -8.9599999999997 q 0,-1.8200000000005 1.3299999999997,-3.1500000000002 1.33000000000038,-1.3299999999999 3.15000000000021,-1.3299999999999 h 89.59999999999976 q 1.8200000000004,0 3.1500000000002,1.3299999999999 1.3300000000003,1.3299999999997 1.3300000000003,3.1500000000002 z m 17.9199999999998,-26.88000000000005 v 8.95999999999971 q 0,1.81999999999958 -1.3299999999998,3.15000000000019 -1.33,1.3299999999997 -3.1500000000001,1.3299999999997 H 37.75999999999984 q -1.81999999999983,0 -3.15000000000021,-1.3299999999997 -1.3299999999997,-1.33000000000058 -1.3299999999997,-3.15000000000019 v -8.95999999999971 q 0,-1.82000000000049 1.3299999999997,-3.15000000000019 1.33000000000038,-1.3299999999999 3.15000000000021,-1.3299999999999 H 145.28 q 1.8200000000001,0 3.1500000000001,1.3299999999999 1.3299999999998,1.3299999999997 1.3299999999998,3.15000000000019 z M 122.8799999999998,51.2000000000001 v 8.95999999999981 Q 122.8799999999998,61.98000000000019 121.55,63.31 q -1.3299999999999,1.3299999999997 -3.1500000000001,1.3299999999997 H 37.75999999999984 q -1.81999999999983,0 -3.15000000000021,-1.32999999999972 -1.3299999999997,-1.32999999999982 -1.3299999999997,-3.15000000000009 v -8.95999999999981 q 0,-1.8200000000004 1.3299999999997,-3.15000000000009 1.33000000000038,-1.32999999999982 3.15000000000021,-1.32999999999982 h 80.64000000000007 q 1.8200000000002,0 3.1500000000001,1.32999999999982 1.3299999999998,1.32999999999969 1.3299999999998,3.15000000000011 z" />
</svg>
