<?xml version="1.0" encoding="UTF-8" standalone="no"?>
<svg
   xmlns:dc="http://purl.org/dc/elements/1.1/"
   xmlns:cc="http://creativecommons.org/ns#"
   xmlns:rdf="http://www.w3.org/1999/02/22-rdf-syntax-ns#"
   xmlns:svg="http://www.w3.org/2000/svg"
   xmlns="http://www.w3.org/2000/svg"
   width="120"
   height="120"
   viewBox="0 0 120 120"
   version="1.1"
   id="svg4">
  <metadata
     id="metadata10">
    <rdf:RDF>
      <cc:Work
         rdf:about="">
        <dc:format>image/svg+xml</dc:format>
        <dc:type
           rdf:resource="http://purl.org/dc/dcmitype/StillImage" />
        <dc:title></dc:title>
      </cc:Work>
    </rdf:RDF>
  </metadata>
  <defs
     id="defs8" />
  <path
     style="stroke-width:1"
     id="path2"
     d="M 53.56971153846154,37.90144230769229 43.35336538461539,64.9447115384615 q 1.98317307692309,0 8.20312499999999,0.12019230769235 6.21995192307695,0.12019230769232 9.64543269230771,0.12019230769232 1.14182692307692,0 3.42548076923075,-0.12019230769232 Q 59.39903846153847,49.86057692307694 53.56971153846154,37.90144230769229 Z M 9.999999999999996,104.3076923076923 10.12019230769231,99.5600961538462 q 1.38221153846154,-0.42067307692311 3.36538461538461,-0.75120192307692 1.98317307692309,-0.33052884615388 3.42548076923077,-0.6310096153847 1.44230769230769,-0.3004807692307 2.9747596153846,-0.87139423076917 1.53245192307691,-0.57091346153845 2.67427884615383,-1.74278846153845 1.14182692307694,-1.17187500000003 1.86298076923078,-3.0348557692308 L 38.66586538461537,55.5096153846154 55.49278846153844,12 h 7.69230769230769 q 0.48076923076924,0.84134615384616 0.66105769230773,1.26201923076925 l 12.31971153846151,28.84615384615381 q 1.98317307692305,4.68750000000003 6.37019230769232,15.47475961538462 4.38701923076924,10.78725961538464 6.85096153846152,16.49639423076925 0.90144230769232,2.04326923076923 3.48557692307692,8.68389423076923 2.58413461538464,6.64062500000001 4.32692307692309,10.12620192307693 1.20192307692307,2.70432692307692 2.10336538461536,3.42548076923076 1.14182692307692,0.90144230769231 5.28846153846152,1.77283653846155 4.1466346153846,0.87139423076918 5.0480769230769,1.2319711538461 Q 110,101.6033653846154 110,102.7451923076923 q 0,0.3004807692308 -0.030048076923,0.8112980769231 -0.030048076923,0.5108173076923 -0.030048076923,0.7512019230769 -3.7860576923077,0 -11.41826923076921,-0.4807692307692 -7.63221153846152,-0.4807692307693 -11.47836538461536,-0.4807692307693 -4.56730769230772,0 -12.92067307692308,0.4206730769231 Q 65.76923076923074,104.1875 63.42548076923075,104.2475961538462 q 0,-2.5841346153847 0.24038461538451,-4.6875 l 7.87259615384625,-1.68269230769239 q 0.0600961538462,0 0.75120192307692,-0.15024038461539 0.69110576923069,-0.1502403846154 0.9314903846154,-0.21033653846152 0.24038461538464,-0.0600961538462 0.87139423076924,-0.27043269230769 0.6310096153846,-0.21033653846152 0.90144230769228,-0.390625 0.27043269230768,-0.18028846153848 0.66105769230772,-0.48076923076927 0.39062499999999,-0.30048076923076 0.54086538461536,-0.66105769230765 0.1502403846154,-0.36057692307692 0.1502403846154,-0.84134615384619 0,-0.96153846153844 -1.86298076923087,-5.79927884615384 Q 72.62019230769216,84.23557692307689 70.15624999999998,78.40624999999997 67.69230769230753,72.57692307692299 67.6322115384615,72.39663461538451 L 40.58894230769229,72.27644230769219 q -1.56250000000009,3.48557692307692 -4.59735576923077,11.74879807692315 -3.03485576923077,8.26322115384616 -3.03485576923077,9.765625 0,1.32211538461537 0.84134615384614,2.25360576923079 0.84134615384604,0.93149038461537 2.6141826923077,1.47235576923073 Q 38.18509615384613,98.0576923076923 39.32692307692308,98.328125 40.46875,98.59855769230759 42.75240384615383,98.8389423076923 q 2.28365384615387,0.2403846153846 2.46394230769233,0.2403846153846 0.0600961538462,1.14182692307689 0.0600961538462,3.48557692307689 0,0.5408653846154 -0.12019230769231,1.6225961538462 -3.48557692307693,0 -10.48677884615385,-0.6009615384616 -7.00120192307696,-0.6009615384615 -10.48677884615388,-0.6009615384615 -0.48076923076924,0 -1.59254807692307,0.2403846153846 -1.11177884615385,0.2403846153846 -1.29206730769232,0.2403846153846 -4.8076923076923,0.8413461538462 -11.298076923076944,0.8413461538462 z" />
</svg>
