<svg xmlns="http://www.w3.org/2000/svg" width="120" height="120" viewBox="0 0 120 120"><path d="M49.677 70.946l27.007-13.95-27.007-14.118zM60 22.846q9.374 0 18.107.25 8.733.252 12.806.53l4.074.224q.056 0 .948.084.893.084 1.284.167.39.084 1.311.251.92.168 1.59.447t1.563.725q.893.447 1.73 1.088.837.642 1.618 1.479.335.335.865 1.032.53.698 1.618 3.265 1.088 2.566 1.479 5.635.446 3.572.697 7.617.251 4.046.307 6.334v9.82q.056 8.091-1.004 16.183-.39 3.069-1.395 5.552-1.005 2.483-1.786 3.431l-.781.949q-.781.837-1.618 1.479-.837.641-1.73 1.06-.893.418-1.562.697-.67.28-1.59.447-.921.167-1.34.251-.418.084-1.283.167-.865.084-.921.084Q80.98 93.154 60 93.154q-11.55-.111-20.06-.362-8.51-.252-11.188-.419l-2.734-.223-2.01-.223q-2.008-.28-3.04-.558-1.033-.28-2.846-1.172-1.814-.893-3.153-2.288-.335-.335-.865-1.032-.53-.698-1.618-3.265-1.088-2.566-1.479-5.635-.446-3.572-.697-7.617-.251-4.046-.307-6.334v-9.82q-.056-8.091 1.004-16.183.39-3.069 1.395-5.552 1.005-2.483 1.786-3.431l.781-.949q.781-.837 1.618-1.479.837-.641 1.73-1.088.893-.446 1.562-.725.67-.28 1.59-.447.921-.167 1.312-.25.39-.084 1.284-.168.892-.084.948-.084Q39.02 22.846 60 22.846z"/></svg>