<?xml version="1.0" standalone="no"?>
<!DOCTYPE svg PUBLIC "-//W3C//DTD SVG 20010904//EN"
 "http://www.w3.org/TR/2001/REC-SVG-20010904/DTD/svg10.dtd">
<svg version="1.0" xmlns="http://www.w3.org/2000/svg"
 width="256.000000pt" height="256.000000pt" viewBox="0 0 256.000000 256.000000"
 preserveAspectRatio="xMidYMid meet">
<metadata>
Created by potrace 1.11, written by Peter Selinger 2001-2013
</metadata>
<g transform="translate(0.000000,256.000000) scale(0.100000,-0.100000)"
fill="#000000" stroke="none">
<path d="M63 2540 c-67 -41 -63 44 -63 -1257 0 -1101 1 -1180 18 -1213 33 -67
48 -70 400 -70 l313 0 -25 37 c-14 20 -24 38 -22 40 2 2 30 -15 63 -37 l61
-40 453 0 454 0 59 39 c333 221 430 671 220 1020 -18 30 -31 57 -29 59 6 6 95
-64 198 -158 201 -182 309 -332 378 -525 18 -49 18 -24 19 990 0 1026 0 1040
-20 1073 -38 62 -39 62 -567 61 -404 -1 -472 -3 -438 -14 76 -24 150 -62 233
-119 l84 -57 68 56 c37 30 72 55 77 55 5 0 54 -48 108 -106 104 -111 138 -147
238 -255 34 -36 73 -77 86 -92 l25 -27 -75 -70 c-40 -38 -78 -69 -83 -70 -4 0
-40 26 -80 58 -211 170 -344 222 -532 209 -263 -19 -441 -164 -505 -414 -10
-40 -19 -100 -21 -134 -2 -39 -8 -63 -16 -66 -7 -3 -41 2 -75 11 -201 54 -368
204 -407 367 -32 136 -5 284 71 396 83 120 224 216 379 257 50 13 8 15 -480
15 -514 1 -536 0 -567 -19z m764 -1112 c107 -81 219 -126 353 -143 129 -16
177 -23 200 -30 8 -2 29 -7 45 -9 172 -29 335 -161 425 -344 26 -54 33 -76 46
-145 l5 -29 -29 21 c-51 36 -153 69 -297 95 -19 4 -196 49 -245 62 -101 29
-309 163 -396 255 -82 86 -163 214 -188 297 -11 33 6 27 81 -30z m94 -1039
c214 -155 387 -285 384 -289 -2 -4 -19 -6 -37 -4 -18 1 -58 5 -89 8 -182 17
-341 91 -468 217 -97 98 -169 217 -186 312 -4 20 -4 37 0 37 3 0 182 -127 396
-281z"/>
</g>
</svg>
