<?xml version="1.0" standalone="no"?>
<!DOCTYPE svg PUBLIC "-//W3C//DTD SVG 20010904//EN"
 "http://www.w3.org/TR/2001/REC-SVG-20010904/DTD/svg10.dtd">
<svg version="1.0" xmlns="http://www.w3.org/2000/svg"
 width="700.000000pt" height="700.000000pt" viewBox="0 0 700.000000 700.000000"
 preserveAspectRatio="xMidYMid meet">
<metadata>
Created by potrace 1.11, written by Peter Selinger 2001-2013
</metadata>
<g transform="translate(0.000000,700.000000) scale(0.100000,-0.100000)"
fill="#000000" stroke="none">
<path d="M3137 6804 c-1 -1 -60 -5 -132 -9 -71 -3 -146 -8 -165 -10 -19 -2
-69 -6 -110 -10 -89 -7 -273 -31 -350 -45 -30 -5 -73 -12 -95 -16 -33 -5 -151
-29 -240 -50 -11 -3 -31 -7 -45 -10 -43 -8 -301 -86 -380 -114 -493 -178 -880
-472 -1084 -826 -82 -141 -164 -357 -182 -474 -3 -19 -7 -41 -10 -49 -3 -8 -7
-40 -10 -70 -3 -31 -9 -81 -13 -111 -8 -66 -6 -317 3 -410 23 -217 79 -421
160 -577 206 -394 601 -637 1326 -814 69 -17 136 -33 150 -35 14 -3 79 -16
145 -29 66 -13 149 -29 185 -34 36 -6 76 -13 90 -16 24 -5 85 -15 125 -20 11
-2 34 -6 50 -8 41 -7 100 -16 160 -23 28 -3 52 -7 55 -9 3 -2 34 -6 70 -10 36
-4 67 -9 70 -10 3 -2 35 -7 70 -10 36 -4 67 -8 70 -10 3 -2 32 -6 65 -9 33 -4
67 -9 75 -11 8 -2 38 -6 65 -10 28 -3 61 -7 75 -10 14 -2 43 -7 65 -10 317
-46 410 -60 525 -80 122 -22 244 -44 325 -60 17 -3 93 -22 170 -41 461 -114
661 -238 726 -449 30 -98 32 -270 4 -355 -39 -117 -112 -214 -228 -301 -177
-133 -470 -238 -797 -284 -63 -9 -126 -18 -140 -21 -153 -25 -741 -25 -876 0
-10 2 -44 7 -75 10 -63 7 -57 6 -194 36 -381 83 -677 254 -836 483 -94 135
-140 263 -164 460 l-6 47 -860 0 -860 0 2 -73 c4 -136 41 -346 89 -502 195
-637 739 -1105 1565 -1346 164 -48 456 -113 605 -135 19 -2 46 -7 60 -9 52 -9
87 -14 140 -19 30 -3 65 -8 78 -10 13 -3 60 -8 105 -12 45 -3 96 -8 112 -9
305 -27 1073 -27 1350 0 17 1 62 6 100 9 84 8 302 35 330 40 11 2 56 9 100 16
96 14 380 73 485 102 577 155 1019 415 1302 766 82 101 238 378 238 422 0 9 4
20 9 25 23 26 82 267 96 395 14 120 17 171 17 280 0 166 -7 233 -36 375 -28
137 -54 214 -111 327 -212 418 -635 689 -1365 877 -63 16 -122 32 -130 35 -8
3 -26 7 -40 10 -14 3 -92 19 -175 36 -82 18 -161 34 -175 36 -14 2 -47 9 -75
14 -27 5 -66 12 -85 15 -19 3 -42 8 -50 10 -8 2 -31 6 -50 9 -19 3 -118 19
-220 35 -102 16 -207 33 -235 37 -27 3 -57 8 -67 10 -9 1 -38 5 -65 9 -26 4
-59 9 -73 11 -14 2 -44 7 -66 10 -23 2 -50 6 -60 8 -19 4 -68 11 -139 21 -58
8 -364 54 -405 61 -46 7 -70 11 -165 25 -44 6 -89 13 -100 15 -11 2 -31 6 -45
9 -14 3 -35 7 -47 9 -11 3 -43 8 -70 12 -26 5 -50 9 -53 9 -3 1 -27 5 -55 9
-144 23 -407 92 -515 136 -118 47 -224 130 -263 206 -44 84 -67 273 -48 379
24 131 118 254 280 366 79 55 271 149 303 149 8 0 18 4 24 9 19 18 261 73 424
96 127 18 419 23 604 11 583 -39 1027 -220 1255 -511 108 -138 160 -255 206
-472 l5 -21 826 0 826 1 -6 95 c-4 53 -9 98 -10 101 -2 3 -7 31 -10 62 -9 79
-51 245 -86 347 -124 349 -353 652 -660 870 -36 26 -67 49 -70 53 -3 3 -9 8
-15 10 -5 2 -55 31 -110 64 -222 132 -508 243 -865 336 -52 13 -325 67 -405
79 -38 6 -81 13 -95 15 -52 8 -107 15 -170 20 -36 3 -81 7 -100 10 -150 18
-366 28 -663 29 -142 1 -259 1 -260 0z"/>
</g>
</svg>
