<svg xmlns="http://www.w3.org/2000/svg" width="120" height="120" viewBox="0 0 120 120"><path d="M63.846 55.913V90.77q0 6.25-4.567 10.818-4.567 4.567-10.817 4.567t-10.818-4.567q-4.567-4.568-4.567-10.818 0-1.562 1.142-2.704 1.142-1.142 2.704-1.142 1.563 0 2.704 1.142 1.142 1.142 1.142 2.704 0 3.005 2.344 5.349 2.344 2.344 5.349 2.344 3.004 0 5.348-2.344t2.344-5.349V55.913q1.983-.66 3.846-.66t3.846.66zM110 57.536q0 .781-.57 1.352-.572.571-1.353.571-.661 0-1.382-.6-2.945-2.765-5.59-4.147-2.643-1.383-6.129-1.383-4.087 0-7.692 2.224-3.606 2.223-6.19 5.83-.42.6-1.052 1.682-.63 1.082-.871 1.442-.661 1.022-1.683 1.022-1.082 0-1.743-1.022-.24-.36-.871-1.442-.631-1.082-1.052-1.683-2.584-3.606-6.16-5.83Q64.087 53.33 60 53.33t-7.662 2.224q-3.576 2.223-6.16 5.83-.42.6-1.052 1.682-.63 1.082-.871 1.442-.661 1.022-1.743 1.022-1.022 0-1.683-1.022-.24-.36-.871-1.442-.631-1.082-1.052-1.683-2.584-3.606-6.19-5.83-3.605-2.223-7.692-2.223-3.486 0-6.13 1.383-2.644 1.382-5.589 4.146-.72.601-1.382.601-.781 0-1.352-.57Q10 58.316 10 57.535q0-.3.06-.42 2.704-10.998 10.367-19.201 7.662-8.203 17.908-12.29Q48.582 21.538 60 21.538q8.413 0 16.496 2.404 8.083 2.404 14.814 6.821Q98.04 35.18 103 42.001q4.958 6.821 6.94 15.114.061.12.061.421zm-46.154-43.69v5.89q-2.524-.12-3.846-.12t-3.846.12v-5.89q0-1.562 1.142-2.704Q58.438 10 60 10q1.563 0 2.704 1.142 1.142 1.142 1.142 2.704z"/></svg>