<?xml version="1.0" encoding="UTF-8" standalone="no"?>
<svg
   xmlns:dc="http://purl.org/dc/elements/1.1/"
   xmlns:cc="http://creativecommons.org/ns#"
   xmlns:rdf="http://www.w3.org/1999/02/22-rdf-syntax-ns#"
   xmlns:svg="http://www.w3.org/2000/svg"
   xmlns="http://www.w3.org/2000/svg"
   width="120"
   height="120"
   viewBox="0 0 120 120"
   version="1.1"
   id="svg4">
  <metadata
     id="metadata10">
    <rdf:RDF>
      <cc:Work
         rdf:about="">
        <dc:format>image/svg+xml</dc:format>
        <dc:type
           rdf:resource="http://purl.org/dc/dcmitype/StillImage" />
        <dc:title></dc:title>
      </cc:Work>
    </rdf:RDF>
  </metadata>
  <defs
     id="defs8" />
  <path
     style="stroke-width:1"
     id="path2"
     d="m 104.6428571428571,31.42857142857139 q 2.2321428571428,0 3.7946428571428,1.56250000000001 1.5625,1.5625 1.5625,3.79464285714287 v 67.85714285714283 q 0,2.2321428571428 -1.5625,3.7946428571428 -1.5625,1.5625 -3.7946428571428,1.5625 H 51.07142857142854 q -2.23214285714284,0 -3.79464285714284,-1.5625 -1.5625,-1.5625 -1.5625,-3.7946428571428 V 88.57142857142848 H 15.35714285714285 q -2.23214285714286,0 -3.79464285714285,-1.56249999999997 Q 9.999999999999994,85.44642857142848 9.999999999999994,83.21428571428562 V 45.71428571428566 q 0,-2.23214285714285 1.116071428571425,-4.91071428571428 1.11607142857143,-2.67857142857143 2.67857142857143,-4.24107142857141 L 36.56249999999998,13.79464285714283 q 1.56250000000002,-1.5625 4.24107142857142,-2.67857142857142 2.67857142857143,-1.116071428571434 4.9107142857143,-1.116071428571434 h 23.21428571428567 q 2.23214285714286,0 3.79464285714289,1.562500000000005 1.56249999999997,1.5625 1.56249999999997,3.79464285714285 v 18.30357142857142 q 3.79464285714288,-2.23214285714286 7.14285714285714,-2.23214285714286 z M 74.28571428571423,43.31473214285711 57.6004464285714,59.99999999999996 H 74.28571428571423 Z M 38.57142857142855,21.88616071428569 21.8861607142857,38.57142857142854 H 38.57142857142855 Z M 49.50892857142854,57.99107142857139 67.14285714285711,40.35714285714283 V 17.14285714285712 H 45.71428571428569 v 23.21428571428571 q 0,2.23214285714285 -1.56249999999999,3.79464285714285 -1.5625,1.56249999999999 -3.79464285714287,1.56249999999999 h -23.2142857142857 v 35.7142857142857 H 45.71428571428569 V 67.14285714285709 q 0,-2.23214285714286 1.11607142857143,-4.91071428571429 1.11607142857143,-2.67857142857142 2.67857142857142,-4.24107142857142 z M 102.8571428571428,102.8571428571428 V 38.57142857142854 H 81.42857142857137 v 23.21428571428571 q 0,2.23214285714286 -1.5625,3.79464285714286 -1.56249999999997,1.56249999999999 -3.79464285714283,1.56249999999999 H 52.85714285714283 v 35.71428571428571 z" />
</svg>
