<svg xmlns="http://www.w3.org/2000/svg" width="120" height="120" viewBox="0 0 120 120"><path d="M104.643 31.429q2.232 0 3.794 1.562Q110 34.554 110 36.786v67.857q0 2.232-1.563 3.794-1.562 1.563-3.794 1.563H51.07q-2.232 0-3.794-1.563-1.563-1.562-1.563-3.794V88.57H15.357q-2.232 0-3.794-1.562Q10 85.446 10 83.214v-37.5q0-2.232 1.116-4.91 1.116-2.679 2.679-4.242l22.767-22.767q1.563-1.563 4.242-2.679Q43.482 10 45.714 10H68.93q2.232 0 3.794 1.562 1.563 1.563 1.563 3.795v18.304q3.794-2.232 7.143-2.232zM74.286 43.315L57.6 60h16.686zM38.57 21.886L21.886 38.571h16.685zM49.51 57.991l17.634-17.634V17.143H45.714v23.214q0 2.232-1.562 3.795-1.563 1.562-3.795 1.562H17.143V81.43h28.571V67.143q0-2.232 1.116-4.91 1.116-2.68 2.679-4.242zm53.348 44.866V38.571H81.43v23.215q0 2.232-1.563 3.794-1.562 1.563-3.795 1.563H52.857v35.714z"/></svg>