<?xml version="1.0" encoding="UTF-8" standalone="no"?>
<svg
   xmlns:dc="http://purl.org/dc/elements/1.1/"
   xmlns:cc="http://creativecommons.org/ns#"
   xmlns:rdf="http://www.w3.org/1999/02/22-rdf-syntax-ns#"
   xmlns:svg="http://www.w3.org/2000/svg"
   xmlns="http://www.w3.org/2000/svg"
   width="120"
   height="120"
   viewBox="0 0 120 120"
   version="1.1"
   id="svg4">
  <metadata
     id="metadata10">
    <rdf:RDF>
      <cc:Work
         rdf:about="">
        <dc:format>image/svg+xml</dc:format>
        <dc:type
           rdf:resource="http://purl.org/dc/dcmitype/StillImage" />
        <dc:title></dc:title>
      </cc:Work>
    </rdf:RDF>
  </metadata>
  <defs
     id="defs8" />
  <path
     style="stroke-width:1"
     id="path2"
     d="m 76.66666666666668,43.33333333333336 q 0,-6.90104166666666 -4.8828125,-11.78385416666668 -4.8828125,-4.88281249999999 -11.78385416666666,-4.88281249999999 -6.90104166666664,0 -11.78385416666667,4.88281249999999 -4.8828125,4.88281250000002 -4.8828125,11.78385416666668 0,6.90104166666666 4.8828125,11.78385416666666 4.8828125,4.8828125 11.78385416666667,4.8828125 6.90104166666666,0 11.78385416666666,-4.8828125 4.8828125,-4.8828125 4.8828125,-11.78385416666666 z m 16.66666666666666,0 q 0,7.09635416666666 -2.14843750000003,11.65364583333334 l -23.69791666666663,50.390625 q -1.04166666666667,2.1484375 -3.09244791666667,3.3854166666666 Q 62.34375,110 60.00000000000003,110 q -2.34375,0 -4.39453125,-1.2369791666667 -2.05078125000001,-1.2369791666666 -3.02734375000001,-3.3854166666666 L 28.81510416666668,54.98697916666669 q -2.14843750000002,-4.55729166666667 -2.14843750000002,-11.65364583333334 0,-13.80208333333335 9.76562500000001,-23.56770833333333 9.765625,-9.765625 23.56770833333333,-9.765625 13.80208333333331,0 23.56770833333331,9.765625 9.76562500000003,9.765625 9.76562500000003,23.56770833333333 z" />
</svg>
