<?xml version="1.0" encoding="UTF-8" standalone="no"?>
<svg
   xmlns:dc="http://purl.org/dc/elements/1.1/"
   xmlns:cc="http://creativecommons.org/ns#"
   xmlns:rdf="http://www.w3.org/1999/02/22-rdf-syntax-ns#"
   xmlns:svg="http://www.w3.org/2000/svg"
   xmlns="http://www.w3.org/2000/svg"
   width="120"
   height="120"
   viewBox="0 0 120 120"
   version="1.1"
   id="svg4">
  <metadata
     id="metadata10">
    <rdf:RDF>
      <cc:Work
         rdf:about="">
        <dc:format>image/svg+xml</dc:format>
        <dc:type
           rdf:resource="http://purl.org/dc/dcmitype/StillImage" />
        <dc:title></dc:title>
      </cc:Work>
    </rdf:RDF>
  </metadata>
  <defs
     id="defs8" />
  <path
     d="m 110,26.33333333333331 v 63.3333333333333 q 0,3.4374999999999 -2.4479166666666,5.8854166666667 Q 105.1041666666666,98 101.6666666666667,98 H 18.33333333333341 Q 14.89583333333343,98 12.44791666666677,95.5520833333333 10.0000000000001,93.1041666666665 10.0000000000001,89.6666666666666 V 26.33333333333329 q 0,-3.43749999999994 2.44791666666667,-5.88541666666659 2.44791666666663,-2.44791666666671 5.88541666666665,-2.44791666666671 h 83.33333333333328 q 3.4374999999999,0 5.8854166666667,2.44791666666671 Q 110,22.89583333333332 110,26.33333333333331 Z m -8.3333333333333,-1.66666666666662 H 18.33333333333341 q -0.67708333333333,0 -1.171875,0.49479166666664 -0.49479166666668,0.49479166666665 -0.49479166666668,1.17187499999998 V 89.6666666666666 q 0,0.67708333333339 0.49479166666668,1.17187500000007 0.49479166666667,0.49479166666657 1.171875,0.49479166666657 h 83.33333333333328 q 0.6770833333333,0 1.171875,-0.49479166666657 0.4947916666666,-0.49479166666663 0.4947916666666,-1.17187500000007 V 26.3333333333333 q 0,-0.67708333333334 -0.4947916666666,-1.17187499999999 -0.4947916666667,-0.49479166666663 -1.171875,-0.49479166666662 z M 49.5,44.35272838214775 q 0,5.42474793700609 -3.81597222222224,9.22207149291024 -3.81597222222219,3.79732355590425 -9.26736111111106,3.79732355590425 -5.45138888888891,0 -9.26736111111105,-3.79732355590425 -3.81597222222221,-3.7973235559042 -3.81597222222221,-9.22207149291024 0,-5.42474793700598 3.81597222222221,-9.22207149291021 3.8159722222222,-3.79732355590429 9.26736111111105,-3.79732355590429 5.45138888888886,0 9.26736111111106,3.79732355590429 Q 49.5,38.92798044514182 49.5,44.35272838214775 Z m -10.00076153886104,41.53201439345626 0.0721164525723,-2.84860046421959 q 0.82933920458592,-0.25240763607013 2.01926067203519,-0.45072792155376 1.18992146744935,-0.19832028548367 2.05531889832157,-0.3786114541052 0.86539743087221,-0.18029116862148 1.78488220117383,-0.52284438900229 0.91948477030176,-0.34255322038085 1.60459106974234,-1.04568877800467 0.68510629944045,-0.70313555762387 1.11780501487654,-1.82094080307711 L 56.69901239972384,56.60545699147314 66.79531575989962,30.49929577508052 h 4.61545296465181 q 0.2884658102908,0.50481527214017 0.39664048914983,0.7572229082103 l 7.39193638870016,17.30795218766355 q 1.18992146744922,2.81254223049537 3.82217198635227,9.28499518400706 2.63225051890295,6.4724529535116 4.11063779664299,9.89798515732006 0.54087339429515,1.22597994662618 2.09137712460779,5.2104147731612 1.55050373031274,3.98443482653508 2.59619229261671,6.07581238254444 0.72116452572681,1.62262051759348 1.26203792002202,2.05531932228506 0.68510629944049,0.54087350586447 3.17312391319814,1.06371789486683 2.48801761375752,0.5228443890023 3.02889100805268,0.73919379134807 0.21634935771806,1.37021288152341 0.21634935771806,2.05531932228507 0,0.18029116862154 -0.0180291131433,0.48678615527807 -0.0180291131431,0.30649498665653 -0.0180291131431,0.45072792155375 -2.27166825603956,0 -6.85106299440496,-0.28846586979441 -4.57939473836554,-0.28846586979446 -6.88712122069143,-0.28846586979446 -2.74042519776208,0 -7.75251865156356,0.25240763607015 -5.01209345380133,0.25240763607012 -6.4183642789687,0.28846586979445 0,-1.55050405014495 0.14423290514533,-2.81254223049532 l 4.72362764351094,-1.00963054428046 q 0.0360582262866,0 0.4507278285792,-0.0901455843107 0.41466960229288,-0.0901455843107 0.55890250743828,-0.12620381803504 0.1442329051454,-0.0360582337243 0.52284428115202,-0.1622620517594 0.37861137600653,-0.12620381803501 0.54087339429513,-0.23437851920792 0.16226201828853,-0.10817470117286 0.39664048914982,-0.28846586979438 0.2343784708612,-0.18029116862151 0.324524036577,-0.39664057096725 0.0901455657157,-0.21634940234577 0.0901455657157,-0.50481527214022 0,-0.57693173958876 -1.11780501487668,-3.47961955439483 -1.11780501487648,-2.90268781480617 -2.59619229261642,-6.40033648606321 -1.4783872777402,-3.49764867125701 -1.5144455040264,-3.60582337242991 L 57.8528756408869,66.66570420055236 q -0.93751388344491,2.09137755600935 -2.75845431090508,7.04938469310054 -1.82094042746035,4.95800713709114 -1.82094042746035,5.85946298019859 0,0.7932811419346 0.5048151680088,1.35218376466125 0.50481516800868,0.55890262272662 1.56853284345587,0.88342672624529 1.06371767544727,0.32452410351877 1.74882397488782,0.48678615527811 0.68510629944058,0.16226205175927 2.05531889832147,0.30649498665656 1.3702125988811,0.14423293489716 1.47838727774014,0.14423293489716 0.0360582262866,0.68510644076163 0.0360582262866,2.09137755600928 0,0.32452410351874 -0.0721164525723,0.97357231055615 -2.09137712460781,0 -6.29216048696658,-0.36058233724302 -4.20078336235894,-0.36058233724293 -6.29216048696681,-0.36058233724293 -0.2884658102907,0 -0.95554299658804,0.14423293489716 -0.66707718629732,0.14423293489719 -0.77525186515635,0.14423293489719 -2.88465810290823,0.50481527214022 -6.77894654183312,0.50481527214033 z M 65.64145251873701,46.04039451025344 59.51155405005885,62.26659968618803 q 1.18992146744924,0 4.9219478880857,0.0721164674487 3.7320264206364,0.0721164674487 5.78734531895793,0.0721164674487 0.68510629944052,0 2.05531889832142,-0.0721164674487 -3.13706568691171,-9.12273313224766 -6.63471363668688,-16.29832164338329 z"
     style="stroke-width:1;stroke:none;stroke-opacity:1;fill:#080808;fill-opacity:1"
     id="path2-0" />
</svg>
