<?xml version="1.0" encoding="UTF-8" standalone="no"?>
<svg
   xmlns:dc="http://purl.org/dc/elements/1.1/"
   xmlns:cc="http://creativecommons.org/ns#"
   xmlns:rdf="http://www.w3.org/1999/02/22-rdf-syntax-ns#"
   xmlns:svg="http://www.w3.org/2000/svg"
   xmlns="http://www.w3.org/2000/svg"
   width="120"
   height="120"
   viewBox="0 0 120 120"
   version="1.1"
   id="svg4">
  <metadata
     id="metadata10">
    <rdf:RDF>
      <cc:Work
         rdf:about="">
        <dc:format>image/svg+xml</dc:format>
        <dc:type
           rdf:resource="http://purl.org/dc/dcmitype/StillImage" />
        <dc:title></dc:title>
      </cc:Work>
    </rdf:RDF>
  </metadata>
  <defs
     id="defs8" />
  <path
     style="stroke-width:1"
     id="path2"
     d="M 63.84615384615384,100.204326923077 102.3076923076923,79.23076923076925 V 41.00961538461542 L 63.84615384615386,55.01201923076927 Z M 60,48.22115384615388 101.9471153846154,32.95673076923078 60,17.6923076923077 18.0528846153846,32.95673076923078 Z M 110,33.0769230769231 v 46.15384615384616 q 0,2.1033653846154 -1.0817307692308,3.90625 -1.0817307692308,1.80288461538463 -2.9447115384615,2.82451923076924 L 63.6658653846154,109.0384615384616 Q 61.98317307692305,110 60.00000000000002,110 q -1.98317307692311,0 -3.66586538461538,-0.9615384615384 L 14.02644230769231,85.96153846153849 q -1.86298076923077,-1.02163461538461 -2.94471153846154,-2.82451923076924 -1.081730769230774,-1.8028846153846 -1.081730769230774,-3.90625 V 33.0769230769231 q 0,-2.40384615384615 1.382211538461544,-4.38701923076924 1.38221153846154,-1.98317307692307 3.66586538461538,-2.82451923076922 l 42.30769230769234,-15.3846153846154 q 1.32211538461538,-0.48076923076923 2.64423076923076,-0.48076923076923 1.32211538461538,0 2.64423076923077,0.48076923076923 l 42.30769230769231,15.38461538461539 q 2.2836538461538,0.84134615384617 3.6658653846154,2.82451923076922 Q 110,30.67307692307694 110,33.0769230769231 Z" />
</svg>
