<svg xmlns="http://www.w3.org/2000/svg" width="120" height="120" viewBox="0 0 120 120"><path d="M63.846 100.204l38.462-20.973V41.01L63.846 55.012zM60 48.221l41.947-15.264L60 17.692 18.053 32.957zm50-15.144V79.23q0 2.103-1.082 3.906-1.081 1.803-2.944 2.825l-42.308 23.076Q61.983 110 60 110q-1.983 0-3.666-.962L14.026 85.962q-1.863-1.022-2.944-2.825Q10 81.334 10 79.231V33.077q0-2.404 1.382-4.387 1.382-1.983 3.666-2.825l42.308-15.384Q58.678 10 60 10t2.644.48l42.308 15.385q2.284.842 3.666 2.825Q110 30.673 110 33.077z"/></svg>