<svg xmlns="http://www.w3.org/2000/svg" width="120" height="120" viewBox="0 0 120 120"><path d="M99.063 31.205q1.562 1.563 2.678 4.241 1.116 2.679 1.116 4.911v64.286q0 2.232-1.562 3.794Q99.732 110 97.5 110h-75q-2.232 0-3.795-1.563-1.562-1.562-1.562-3.794V15.357q0-2.232 1.562-3.794Q20.268 10 22.5 10h50q2.232 0 4.91 1.116 2.68 1.116 4.242 2.679zM74.286 17.59v20.982h20.982q-.558-1.618-1.228-2.288L76.574 18.817q-.67-.67-2.288-1.228zm21.428 85.268V45.714H72.5q-2.232 0-3.795-1.562-1.562-1.563-1.562-3.795V17.143H24.286v85.714zm-51.785-50q.446-.614 1.171-.697.726-.084 1.34.362l2.846 2.12q.614.447.697 1.173.084.725-.362 1.339l-10.157 13.56 10.157 13.56q.446.614.362 1.34-.083.725-.697 1.172l-2.846 2.12q-.614.447-1.34.363-.725-.084-1.171-.698L31.317 71.775q-.781-1.06 0-2.121zm44.754 16.797q.781 1.06 0 2.12L76.071 88.572q-.446.614-1.171.698-.726.084-1.34-.363l-2.846-2.12q-.614-.447-.697-1.172-.084-.726.362-1.34l10.157-13.56-10.157-13.56q-.446-.614-.362-1.34.083-.725.697-1.171l2.846-2.12q.614-.447 1.34-.363.725.083 1.171.697zM54.085 95.379q-.726-.111-1.144-.725-.419-.614-.307-1.34l7.7-46.372q.112-.725.726-1.144.614-.419 1.34-.307l3.515.558q.726.112 1.144.726.419.613.307 1.339l-7.7 46.373q-.112.725-.726 1.144-.614.418-1.34.307z"/></svg>