<svg xmlns="http://www.w3.org/2000/svg" width="120" height="120" viewBox="0 0 120 120"><path d="M98.235 81.53q0-2.452-1.715-4.167L83.775 64.618q-1.716-1.716-4.167-1.716-2.574 0-4.412 1.96.184.185 1.164 1.134.98.95 1.318 1.318.337.367.919 1.164.582.797.796 1.562.215.766.215 1.685 0 2.451-1.716 4.167-1.716 1.716-4.167 1.716-.919 0-1.685-.215-.765-.214-1.562-.796-.797-.582-1.164-.92-.368-.336-1.318-1.317-.95-.98-1.133-1.164-2.022 1.9-2.022 4.473 0 2.451 1.715 4.167L79.18 94.52q1.654 1.654 4.167 1.654 2.45 0 4.166-1.593l9.008-8.946q1.715-1.716 1.715-4.106zM55.16 38.33q0-2.45-1.715-4.166L40.82 21.48q-1.716-1.715-4.167-1.715-2.39 0-4.166 1.654l-9.008 8.946q-1.715 1.716-1.715 4.106 0 2.45 1.715 4.166l12.745 12.745q1.655 1.655 4.167 1.655 2.574 0 4.412-1.9-.184-.184-1.164-1.133-.98-.95-1.318-1.318-.337-.367-.919-1.164-.582-.797-.796-1.562-.215-.766-.215-1.685 0-2.451 1.716-4.167 1.716-1.716 4.167-1.716.919 0 1.685.215.765.214 1.562.796.797.582 1.164.92.368.336 1.318 1.317.95.98 1.133 1.164 2.022-1.9 2.022-4.473zM110 81.53q0 7.352-5.208 12.438l-9.008 8.946Q90.7 108 83.346 108q-7.415 0-12.5-5.208L58.223 90.108q-5.086-5.086-5.086-12.439 0-7.537 5.392-12.806l-5.392-5.392q-5.27 5.392-12.745 5.392-7.353 0-12.5-5.147L15.147 46.97Q10 41.824 10 34.47t5.208-12.44l9.008-8.945Q29.3 8 36.654 8q7.415 0 12.5 5.208l12.623 12.684q5.086 5.086 5.086 12.439 0 7.537-5.392 12.806l5.392 5.392q5.27-5.392 12.745-5.392 7.353 0 12.5 5.147l12.745 12.745Q110 74.176 110 81.53z"/></svg>