<?xml version="1.0" encoding="UTF-8" standalone="no"?>
<svg
   xmlns:dc="http://purl.org/dc/elements/1.1/"
   xmlns:cc="http://creativecommons.org/ns#"
   xmlns:rdf="http://www.w3.org/1999/02/22-rdf-syntax-ns#"
   xmlns:svg="http://www.w3.org/2000/svg"
   xmlns="http://www.w3.org/2000/svg"
   width="120"
   height="120"
   viewBox="0 0 120 120"
   version="1.1"
   id="svg4">
  <metadata
     id="metadata10">
    <rdf:RDF>
      <cc:Work
         rdf:about="">
        <dc:format>image/svg+xml</dc:format>
        <dc:type
           rdf:resource="http://purl.org/dc/dcmitype/StillImage" />
        <dc:title></dc:title>
      </cc:Work>
    </rdf:RDF>
  </metadata>
  <defs
     id="defs8" />
  <path
     style="stroke-width:1"
     id="path2-0"
     d="m 30,91.99999999999988 v -6.66666666666667 q 0,-1.3541666666666 -0.98958333333333,-2.34374999999993 -0.98958333333333,-0.98958333333337 -2.34374999999999,-0.98958333333337 h -6.66666666666664 q -1.35416666666668,0 -2.34375,0.98958333333337 -0.98958333333336,0.98958333333333 -0.98958333333336,2.34374999999993 v 6.66666666666667 q 0,1.35416666666663 0.98958333333336,2.34375000000006 0.98958333333332,0.98958333333336 2.34375,0.98958333333336 h 6.66666666666664 q 1.35416666666666,0 2.34374999999999,-0.98958333333336 Q 30,93.35416666666651 30,91.99999999999988 Z M 30,71.99999999999991 V 65.3333333333333 q 0,-1.35416666666668 -0.98958333333333,-2.34375 Q 28.02083333333334,62 26.66666666666668,62 h -6.66666666666664 q -1.35416666666667,0 -2.34375,0.9895833333333 -0.98958333333336,0.98958333333332 -0.98958333333336,2.34375 v 6.66666666666661 q 0,1.35416666666667 0.98958333333336,2.34375 0.98958333333333,0.98958333333333 2.34375,0.98958333333333 h 6.66666666666664 q 1.35416666666668,0 2.34374999999999,-0.98958333333333 Q 30,73.35416666666658 30,71.99999999999991 Z M 30,52 v -6.66666666666664 q 0,-1.35416666666665 -0.98958333333333,-2.34374999999999 -0.98958333333333,-0.98958333333335 -2.34374999999999,-0.98958333333335 h -6.66666666666664 q -1.35416666666667,0 -2.34375,0.98958333333332 -0.98958333333336,0.98958333333335 -0.98958333333336,2.34375 v 6.66666666666665 q 0,1.35416666666668 0.98958333333336,2.34374999999998 0.98958333333333,0.98958333333335 2.34375,0.98958333333335 h 6.66666666666664 q 1.35416666666668,0 2.34374999999999,-0.98958333333335 Q 30,53.35416666666665 30,52 Z M 83.33333333333328,91.99999999999988 V 65.33333333333331 q 0,-1.35416666666664 -0.98958333333329,-2.34374999999999 Q 81.3541666666666,62 80,62 H 40.00000000000002 q -1.3541666666667,0 -2.34375,0.98958333333332 -0.98958333333333,0.98958333333333 -0.98958333333333,2.34374999999999 v 26.66666666666657 q 0,1.35416666666663 0.98958333333333,2.34375000000006 0.9895833333333,0.98958333333336 2.34375,0.98958333333336 H 80 q 1.3541666666666,0 2.34375,-0.98958333333336 0.98958333333329,-0.98958333333343 0.98958333333329,-2.34375000000006 z M 30,32.00000000000002 v -6.66666666666668 q 0,-1.35416666666668 -0.98958333333333,-2.34375 -0.98958333333333,-0.98958333333332 -2.34374999999999,-0.98958333333332 h -6.66666666666664 q -1.35416666666667,0 -2.34375,0.98958333333332 -0.98958333333336,0.98958333333332 -0.98958333333336,2.34375 v 6.66666666666668 q 0,1.35416666666667 0.98958333333336,2.34375 0.98958333333333,0.98958333333335 2.34375,0.98958333333335 h 6.66666666666664 q 1.35416666666668,0 2.34374999999999,-0.98958333333335 Q 30,33.35416666666668 30,32.00000000000002 Z m 73.3333333333332,59.99999999999987 v -6.66666666666667 q 0,-1.35416666666663 -0.9895833333333,-2.34374999999997 Q 101.3541666666666,81.99999999999988 100,81.99999999999988 h -6.66666666666669 q -1.35416666666671,0 -2.34375,0.98958333333336 Q 90,83.97916666666658 90,85.33333333333321 v 6.66666666666667 q 0,1.35416666666663 0.98958333333329,2.34375000000006 0.98958333333329,0.9895833333333 2.34375,0.9895833333333 H 100 q 1.3541666666666,0 2.34375,-0.9895833333333 0.9895833333332,-0.98958333333343 0.9895833333332,-2.34375000000006 z M 83.33333333333328,52 V 25.33333333333335 q 0,-1.35416666666667 -0.98958333333329,-2.34375 Q 81.3541666666666,22.00000000000002 80,22.00000000000002 H 40.00000000000002 q -1.3541666666667,0 -2.34375,0.98958333333333 -0.98958333333333,0.98958333333333 -0.98958333333333,2.34375 V 52 q 0,1.35416666666665 0.98958333333333,2.34375 0.9895833333333,0.98958333333332 2.34375,0.98958333333332 H 80 q 1.3541666666666,0 2.34375,-0.98958333333332 Q 83.33333333333328,53.35416666666667 83.33333333333328,52 Z m 19.99999999999991,19.99999999999991 v -6.66666666666663 q 0,-1.35416666666669 -0.9895833333332,-2.34374999999999 Q 101.3541666666666,62 100,62 h -6.66666666666669 q -1.35416666666671,0 -2.34375,0.98958333333332 Q 90,63.97916666666665 90,65.33333333333331 v 6.6666666666666 q 0,1.35416666666667 0.98958333333329,2.34375 0.98958333333329,0.98958333333333 2.34375,0.98958333333333 H 100 q 1.3541666666666,0 2.34375,-0.98958333333333 0.9895833333332,-0.98958333333333 0.9895833333332,-2.34375 z m 0,-19.99999999999991 v -6.66666666666665 q 0,-1.35416666666665 -0.9895833333332,-2.34374999999999 Q 101.3541666666666,42.00000000000002 100,42.00000000000002 h -6.66666666666669 q -1.35416666666671,0 -2.34375,0.98958333333332 Q 90,43.97916666666669 90,45.33333333333334 V 52 q 0,1.35416666666667 0.98958333333329,2.34374999999997 0.98958333333329,0.98958333333335 2.34375,0.98958333333335 H 100 q 1.3541666666666,0 2.34375,-0.98958333333335 Q 103.3333333333332,53.35416666666665 103.3333333333332,52 Z m 0,-19.99999999999997 v -6.66666666666666 q 0,-1.35416666666668 -0.9895833333332,-2.34375000000001 Q 101.3541666666666,22.00000000000002 100,22.00000000000002 h -6.66666666666669 q -1.35416666666671,0 -2.34375,0.98958333333333 Q 90,23.97916666666667 90,25.33333333333336 v 6.66666666666666 q 0,1.35416666666667 0.98958333333329,2.34375 0.98958333333329,0.98958333333335 2.34375,0.98958333333335 H 100 q 1.3541666666666,0 2.34375,-0.98958333333335 0.9895833333332,-0.98958333333333 0.9895833333332,-2.34374999999999 z M 110,23.66666666666669 V 93.6666666666666 q 0,3.43749999999997 -2.4479166666667,5.88541666666667 -2.4479166666668,2.44791666666663 -5.8854166666667,2.44791666666663 H 18.33333333333336 q -3.43749999999997,0 -5.88541666666666,-2.44791666666663 -2.44791666666665,-2.44791666666676 -2.44791666666665,-5.88541666666667 V 23.66666666666668 q 0,-3.4375 2.44791666666665,-5.88541666666666 2.44791666666669,-2.44791666666665 5.88541666666666,-2.44791666666665 h 83.33333333333324 q 3.4374999999999,0 5.8854166666667,2.44791666666665 Q 110,20.22916666666668 110,23.66666666666669 Z" />
</svg>
