<svg xmlns="http://www.w3.org/2000/svg" width="120" height="120" viewBox="0 0 120 120"><path d="M30 92v-6.667q0-1.354-.99-2.343-.99-.99-2.343-.99H20q-1.354 0-2.344.99-.99.99-.99 2.343V92q0 1.354.99 2.344.99.99 2.344.99h6.667q1.354 0 2.343-.99.99-.99.99-2.344zm0-20v-6.667q0-1.354-.99-2.343-.99-.99-2.343-.99H20q-1.354 0-2.344.99-.99.99-.99 2.343V72q0 1.354.99 2.344.99.99 2.344.99h6.667q1.354 0 2.343-.99.99-.99.99-2.344zm0-20v-6.667q0-1.354-.99-2.343-.99-.99-2.343-.99H20q-1.354 0-2.344.99-.99.99-.99 2.343V52q0 1.354.99 2.344.99.99 2.344.99h6.667q1.354 0 2.343-.99.99-.99.99-2.344zm53.333 40V65.333q0-1.354-.99-2.343Q81.355 62 80 62H40q-1.354 0-2.344.99-.99.99-.99 2.343V92q0 1.354.99 2.344.99.99 2.344.99h40q1.354 0 2.344-.99.99-.99.99-2.344zM30 32v-6.667q0-1.354-.99-2.343-.99-.99-2.343-.99H20q-1.354 0-2.344.99-.99.99-.99 2.343V32q0 1.354.99 2.344.99.99 2.344.99h6.667q1.354 0 2.343-.99.99-.99.99-2.344zm73.333 60v-6.667q0-1.354-.99-2.343Q101.355 82 100 82h-6.667q-1.354 0-2.343.99-.99.99-.99 2.343V92q0 1.354.99 2.344.99.99 2.343.99H100q1.354 0 2.344-.99.99-.99.99-2.344zm-20-40V25.333q0-1.354-.99-2.343Q81.355 22 80 22H40q-1.354 0-2.344.99-.99.99-.99 2.343V52q0 1.354.99 2.344.99.99 2.344.99h40q1.354 0 2.344-.99.99-.99.99-2.344zm20 20v-6.667q0-1.354-.99-2.343Q101.355 62 100 62h-6.667q-1.354 0-2.343.99-.99.99-.99 2.343V72q0 1.354.99 2.344.99.99 2.343.99H100q1.354 0 2.344-.99.99-.99.99-2.344zm0-20v-6.667q0-1.354-.99-2.343Q101.355 42 100 42h-6.667q-1.354 0-2.343.99-.99.99-.99 2.343V52q0 1.354.99 2.344.99.99 2.343.99H100q1.354 0 2.344-.99.99-.99.99-2.344zm0-20v-6.667q0-1.354-.99-2.343Q101.355 22 100 22h-6.667q-1.354 0-2.343.99-.99.99-.99 2.343V32q0 1.354.99 2.344.99.99 2.343.99H100q1.354 0 2.344-.99.99-.99.99-2.344zM110 23.667v70q0 3.437-2.448 5.885T101.667 102H18.333q-3.437 0-5.885-2.448T10 93.667v-70q0-3.438 2.448-5.886t5.885-2.448h83.334q3.437 0 5.885 2.448T110 23.667z"/></svg>