<svg xmlns="http://www.w3.org/2000/svg" width="120" height="120" viewBox="0 0 120 120"><path d="M33.46 36.846q0-2.805-1.985-4.79-1.985-1.984-4.79-1.984-2.805 0-4.79 1.985-1.984 1.984-1.984 4.79 0 2.804 1.985 4.789 1.984 1.984 4.79 1.984 2.804 0 4.789-1.984 1.984-1.985 1.984-4.79zM89.927 67.33q0 2.805-1.958 4.763L61.985 98.13q-2.064 1.958-4.816 1.958-2.805 0-4.763-1.958l-37.84-37.893q-2.011-1.958-3.414-5.345-1.402-3.387-1.402-6.192V26.685q0-2.752 2.011-4.763 2.011-2.01 4.763-2.01H38.54q2.805 0 6.192 1.402t5.398 3.413l37.84 37.787q1.958 2.064 1.958 4.816zm20.322 0q0 2.805-1.958 4.763L82.307 98.13q-2.064 1.958-4.816 1.958-1.905 0-3.123-.741-1.217-.741-2.804-2.382l24.873-24.873q1.958-1.958 1.958-4.763 0-2.752-1.958-4.816l-37.84-37.787q-2.01-2.011-5.398-3.413-3.387-1.403-6.191-1.403h11.854q2.805 0 6.192 1.403 3.387 1.402 5.398 3.413l37.84 37.787q1.958 2.064 1.958 4.816z"/></svg>