<svg xmlns="http://www.w3.org/2000/svg" width="120" height="120" viewBox="0 0 120 120"><path d="M53.57 37.901L43.353 64.945q1.984 0 8.203.12 6.22.12 9.646.12 1.142 0 3.425-.12Q59.4 49.86 53.57 37.9zM10 104.308l.12-4.748q1.382-.42 3.366-.751 1.983-.33 3.425-.631 1.442-.3 2.975-.872 1.532-.57 2.674-1.742 1.142-1.172 1.863-3.035l14.243-37.02L55.493 12h7.692q.48.841.661 1.262l12.32 28.846q1.983 4.688 6.37 15.475 4.387 10.787 6.851 16.496.901 2.044 3.486 8.684 2.584 6.64 4.327 10.126 1.201 2.705 2.103 3.426 1.142.901 5.288 1.773 4.147.871 5.048 1.232.361 2.283.361 3.425 0 .3-.03.811-.03.511-.03.752-3.786 0-11.418-.481-7.633-.48-11.479-.48-4.567 0-12.92.42-8.354.42-10.698.48 0-2.584.24-4.687l7.873-1.683q.06 0 .752-.15.69-.15.931-.21.24-.06.872-.27.63-.21.901-.391.27-.18.661-.481.39-.3.54-.661.151-.36.151-.841 0-.962-1.863-5.8-1.863-4.837-4.327-10.667t-2.524-6.01l-27.043-.12q-1.563 3.486-4.597 11.75-3.035 8.262-3.035 9.765 0 1.322.841 2.253.841.932 2.614 1.473 1.773.54 2.915.811 1.142.27 3.425.51 2.284.241 2.464.241.06 1.142.06 3.486 0 .54-.12 1.622-3.485 0-10.487-.6-7-.601-10.486-.601-.481 0-1.593.24t-1.292.24q-4.808.842-11.298.842z"/></svg>