<?xml version="1.0" encoding="UTF-8" standalone="no"?>
<svg
   xmlns:dc="http://purl.org/dc/elements/1.1/"
   xmlns:cc="http://creativecommons.org/ns#"
   xmlns:rdf="http://www.w3.org/1999/02/22-rdf-syntax-ns#"
   xmlns:svg="http://www.w3.org/2000/svg"
   xmlns="http://www.w3.org/2000/svg"
   width="120"
   height="120"
   viewBox="0 0 120 120"
   version="1.1"
   id="svg4">
  <metadata
     id="metadata10">
    <rdf:RDF>
      <cc:Work
         rdf:about="">
        <dc:format>image/svg+xml</dc:format>
        <dc:type
           rdf:resource="http://purl.org/dc/dcmitype/StillImage" />
        <dc:title></dc:title>
      </cc:Work>
    </rdf:RDF>
  </metadata>
  <defs
     id="defs8" />
  <path
     style="stroke-width:1"
     id="path2"
     d="M 49.67691535070586,70.94570615479048 76.68433681156182,56.99559176385249 49.67691535070586,42.87807600022323 Z M 59.99999999999998,22.84571173483624 q 9.37447687071035,0 18.10724847943749,0.25110205903688 8.73277160872722,0.25110205903688 12.8062050108811,0.53010434685565 l 4.07343340215391,0.223201830255 q 0.0558004575638,0 0.94860777858378,0.0837006863456 0.89280732102003,0.0837006863456 1.28341052396631,0.16740137269126 0.39060320294625,0.0837006863456 1.31131075274817,0.25110205903688 0.9207075498019,0.16740137269125 1.59031304056695,0.44640366051002 0.669605490765,0.27900228781876 1.562412811785,0.72540594832876 0.8928073210201,0.44640366051002 1.7298141844764,1.08810892249319 0.8370068634562,0.64170526198314 1.6182132693488,1.47871212543942 0.3348027453825,0.33480274538251 0.8649070922381,1.03230846492942 0.5301043468557,0.6975057195469 1.6182132693488,3.26432676747949 1.0881089224932,2.56682104793258 1.4787121254395,5.63584621393895 0.44640366051,3.57122928408013 0.6975057195468,7.61676245745216 0.2511020590369,4.04553317337202 0.3069025166007,6.33335193348584 v 9.82088053122033 q 0.055800457564,8.09106634674409 -1.0044082361475,16.18213269348813 -0.3906032029463,3.06902516600634 -1.3950114390938,5.55214552759331 -1.0044082361476,2.4831203615869 -1.7856146420401,3.43172814017072 l -0.7812064058925,0.94860777858375 q -0.7812064058926,0.83700686345631 -1.6182132693488,1.47871212543947 -0.8370068634563,0.64170526198315 -1.7298141844764,1.06020869371129 -0.89280732102,0.41850343172814 -1.562412811785,0.69750571954687 -0.66960549076512,0.27900228781874 -1.59031304056703,0.44640366051007 -0.92070754980192,0.16740137269123 -1.33921098153004,0.25110205903681 -0.41850343172814,0.0837006863456 -1.28341052396631,0.16740137269133 -0.86490709223817,0.0837006863456 -0.9207075498019,0.0837006863456 Q 80.9809720439707,93.15428826516377 59.99999999999997,93.15428826516377 48.44930528430332,93.04268735003624 39.93973550583113,92.79158529099935 31.43016572735897,92.54048323196245 28.75174376429886,92.37308185927119 l -2.73422242062387,-0.22320183025496 -2.00881647229506,-0.22320183025501 q -2.00881647229507,-0.27900228781874 -3.04112493722447,-0.55800457563751 -1.03230846492943,-0.27900228781876 -2.84582333575137,-1.1718096088388 -1.81351487082193,-0.89280732102007 -3.15272585235198,-2.28781876011388 -0.33480274538251,-0.33480274538249 -0.86490709223815,-1.03230846492937 -0.53010434685565,-0.69750571954691 -1.6182132693488,-3.26432676747949 -1.08810892249318,-2.56682104793259 -1.47871212543944,-5.63584621393895 -0.44640366051002,-3.57122928408013 -0.6975057195469,-7.61676245745214 -0.25110205903688,-4.04553317337202 -0.30690251660064,-6.33335193348587 v -9.82088053122033 q -0.05580045756375,-8.09106634674405 1.00440823614754,-16.18213269348808 0.39060320294626,-3.06902516600636 1.3950114390938,-5.55214552759333 1.00440823614754,-2.48312036158697 1.78561464204006,-3.43172814017075 l 0.78120640589253,-0.94860777858378 q 0.78120640589253,-0.83700686345627 1.6182132693488,-1.47871212543942 0.83700686345628,-0.64170526198316 1.7298141844763,-1.08810892249318 0.89280732102005,-0.44640366051 1.56241281178505,-0.72540594832876 0.66960549076506,-0.27900228781876 1.59031304056695,-0.44640366051002 0.92070754980189,-0.16740137269125 1.31131075274819,-0.25110205903688 0.39060320294625,-0.0837006863456 1.28341052396627,-0.16740137269126 0.89280732102004,-0.0837006863456 0.94860777858382,-0.0837006863456 14.00591484850175,-1.00440823614754 34.98688689247249,-1.00440823614758 z" />
</svg>
